<svg width="1350" height="470" viewBox="0 0 1350 470" fill="none" xmlns="http://www.w3.org/2000/svg">
<rect width="1350" height="470" rx="18" fill="#C4C4C4"/>
<rect x="790" y="130" width="100" height="100" rx="3" fill="#212121"/>
<path opacity="0.2" d="M843.04 168.727V185.364C843.04 188.261 841.653 189.818 839.222 189.818C837.006 189.818 835.403 188.523 835.403 186.545H832.631C832.631 190.125 835.403 192.318 839.222 192.318C843.267 192.318 845.858 189.83 845.858 185.364V168.727H843.04Z" fill="white"/>
<path opacity="0.2" d="M874.364 142H872.646V154.844L867.692 149.891L866.505 151.094L873.505 158.094L880.521 151.094L879.302 149.891L874.364 154.844V142Z" fill="#EF9E00"/>
<path d="M867.724 213.719H875.255V217H877.099V213.719H879.286V212H877.099V201H874.755L867.724 212.125V213.719ZM875.255 212H869.817V211.875L875.13 203.469H875.255V212Z" fill="#5CF300"/>
<rect x="826" y="204" width="28" height="6" rx="3" fill="url(#paint0_linear_16_1038)"/>
<rect x="460" y="130" width="100" height="100" rx="3" fill="#212121"/>
<path opacity="0.2" d="M503.928 192H506.746V181.591H516.837V179.091H506.746V171.227H517.882V168.727H503.928V192Z" fill="white"/>
<path opacity="0.2" d="M539.765 141.25V142.781C541.577 142.781 542.14 143.609 542.14 145.437V148.562C542.14 149.836 542.538 150.781 544.327 151.133V151.367C542.538 151.719 542.14 152.664 542.14 153.937V157.062C542.14 158.891 541.577 159.719 539.765 159.719V161.25C542.827 161.25 543.827 159.938 543.827 157.062V154.562C543.827 152.852 544.429 152.187 546.171 152.187V150.312C544.429 150.312 543.827 149.648 543.827 147.937V145.437C543.827 142.562 542.827 141.25 539.765 141.25Z" fill="#EF9E00"/>
<rect x="496" y="204" width="28" height="6" rx="3" fill="url(#paint1_linear_16_1038)"/>
<rect x="350" y="350" width="100" height="100" rx="3" fill="#212121"/>
<path d="M428.536 378.359C430.411 378.359 431.935 376.836 431.942 374.969V373.156H435.083V374.969C435.075 376.836 436.599 378.359 438.474 378.359C440.341 378.359 441.864 376.836 441.864 374.969C441.864 373.094 440.341 371.57 438.474 371.562H436.677V368.422H438.474C440.341 368.43 441.864 366.906 441.864 365.031C441.864 363.164 440.341 361.641 438.474 361.641C436.599 361.641 435.075 363.164 435.083 365.031V366.828H431.942V365.031C431.935 363.164 430.411 361.641 428.536 361.641C426.669 361.641 425.146 363.164 425.146 365.031C425.146 366.906 426.669 368.43 428.536 368.422H430.349V371.562H428.536C426.669 371.57 425.146 373.094 425.146 374.969C425.146 376.836 426.669 378.359 428.536 378.359ZM428.536 376.766C427.544 376.766 426.739 375.961 426.739 374.969C426.739 373.969 427.544 373.164 428.536 373.156H430.349V374.969C430.341 375.961 429.536 376.766 428.536 376.766ZM428.536 366.828C427.544 366.836 426.739 366.031 426.739 365.031C426.739 364.039 427.544 363.234 428.536 363.234C429.536 363.234 430.341 364.039 430.349 365.031V366.828H428.536ZM438.474 376.766C437.474 376.766 436.669 375.961 436.677 374.969V373.156H438.474C439.466 373.164 440.271 373.969 440.271 374.969C440.271 375.961 439.466 376.766 438.474 376.766ZM436.677 366.828V365.031C436.669 364.039 437.474 363.234 438.474 363.234C439.466 363.234 440.271 364.039 440.271 365.031C440.271 366.031 439.466 366.836 438.474 366.828H436.677ZM431.942 371.562V368.422H435.083V371.562H431.942Z" fill="#7AE7FF"/>
<path d="M411.49 438.205C413.664 438.205 415.096 436.875 415.351 435.136H413.843C413.561 436.21 412.667 436.849 411.49 436.849C409.701 436.849 408.55 435.366 408.55 433.091C408.55 430.866 409.726 429.409 411.49 429.409C412.82 429.409 413.613 430.227 413.843 431.122H415.351C415.096 429.281 413.536 428.054 411.465 428.054C408.806 428.054 407.042 430.151 407.042 433.142C407.042 436.082 408.729 438.205 411.49 438.205ZM417.556 438H419.065V431.864C419.065 430.425 420.113 429.409 421.289 429.409C422.434 429.409 423.233 430.157 423.233 431.276V438H424.767V431.608C424.767 430.342 425.559 429.409 426.94 429.409C428.014 429.409 428.934 429.978 428.934 431.429V438H430.443V431.429C430.443 429.121 429.203 428.054 427.451 428.054C426.045 428.054 425.016 428.7 424.511 429.716H424.409C423.923 428.668 423.066 428.054 421.775 428.054C420.497 428.054 419.551 428.668 419.142 429.716H419.014V428.182H417.556V438ZM436.908 438.205C438.8 438.205 439.44 437.028 439.772 436.491H439.951V438H441.408V424.909H439.9V429.741H439.772C439.44 429.23 438.852 428.054 436.934 428.054C434.454 428.054 432.741 430.023 432.741 433.116C432.741 436.236 434.454 438.205 436.908 438.205ZM437.113 436.849C435.221 436.849 434.249 435.188 434.249 433.091C434.249 431.02 435.195 429.409 437.113 429.409C438.954 429.409 439.925 430.892 439.925 433.091C439.925 435.315 438.928 436.849 437.113 436.849Z" fill="#7AE7FF"/>
<rect x="240" y="350" width="100" height="100" rx="3" fill="#212121"/>
<path d="M314.253 363.719H319.378L326.597 378H332.753V376.281H327.628L320.409 362H314.253V363.719ZM325.269 362V363.719H332.753V362H325.269Z" fill="#7AE7FF"/>
<path d="M284.58 438.205C287.239 438.205 289.029 436.185 289.029 433.142C289.029 430.074 287.239 428.054 284.58 428.054C281.921 428.054 280.131 430.074 280.131 433.142C280.131 436.185 281.921 438.205 284.58 438.205ZM284.58 436.849C282.56 436.849 281.64 435.111 281.64 433.142C281.64 431.173 282.56 429.409 284.58 429.409C286.6 429.409 287.521 431.173 287.521 433.142C287.521 435.111 286.6 436.849 284.58 436.849ZM291.332 441.682H292.84V436.491H292.968C293.301 437.028 293.94 438.205 295.832 438.205C298.286 438.205 299.999 436.236 299.999 433.116C299.999 430.023 298.286 428.054 295.806 428.054C293.889 428.054 293.301 429.23 292.968 429.741H292.789V428.182H291.332V441.682ZM292.815 433.091C292.815 430.892 293.786 429.409 295.627 429.409C297.545 429.409 298.491 431.02 298.491 433.091C298.491 435.188 297.519 436.849 295.627 436.849C293.812 436.849 292.815 435.315 292.815 433.091ZM306.57 428.182H304.474V425.83H302.965V428.182H301.482V429.46H302.965V435.597C302.965 437.31 304.346 438.128 305.624 438.128C306.187 438.128 306.545 438.026 306.749 437.949L306.443 436.594C306.315 436.619 306.11 436.67 305.778 436.67C305.113 436.67 304.474 436.466 304.474 435.188V429.46H306.57V428.182ZM308.84 438H310.348V428.182H308.84V438ZM309.607 426.545C310.195 426.545 310.681 426.085 310.681 425.523C310.681 424.96 310.195 424.5 309.607 424.5C309.019 424.5 308.533 424.96 308.533 425.523C308.533 426.085 309.019 426.545 309.607 426.545ZM317.1 438.205C319.759 438.205 321.549 436.185 321.549 433.142C321.549 430.074 319.759 428.054 317.1 428.054C314.441 428.054 312.651 430.074 312.651 433.142C312.651 436.185 314.441 438.205 317.1 438.205ZM317.1 436.849C315.08 436.849 314.159 435.111 314.159 433.142C314.159 431.173 315.08 429.409 317.1 429.409C319.12 429.409 320.04 431.173 320.04 433.142C320.04 435.111 319.12 436.849 317.1 436.849ZM325.36 432.094C325.36 430.381 326.421 429.409 327.866 429.409C329.265 429.409 330.116 430.323 330.116 431.864V438H331.624V431.761C331.624 429.256 330.288 428.054 328.3 428.054C326.817 428.054 325.897 428.719 325.437 429.716H325.309V428.182H323.851V438H325.36V432.094Z" fill="#7AE7FF"/>
<rect x="130" y="350" width="100" height="100" rx="3" fill="#212121"/>
<path d="M207.776 369.437L212.995 364.234L218.214 369.437L219.401 368.25L212.995 361.844L206.589 368.25L207.776 369.437Z" fill="#7AE7FF"/>
<path d="M169.096 438.205C171.269 438.205 172.701 436.875 172.957 435.136H171.448C171.167 436.21 170.272 436.849 169.096 436.849C167.306 436.849 166.156 435.366 166.156 433.091C166.156 430.866 167.332 429.409 169.096 429.409C170.425 429.409 171.218 430.227 171.448 431.122H172.957C172.701 429.281 171.141 428.054 169.07 428.054C166.411 428.054 164.647 430.151 164.647 433.142C164.647 436.082 166.335 438.205 169.096 438.205ZM179.151 438.205C181.81 438.205 183.599 436.185 183.599 433.142C183.599 430.074 181.81 428.054 179.151 428.054C176.491 428.054 174.702 430.074 174.702 433.142C174.702 436.185 176.491 438.205 179.151 438.205ZM179.151 436.849C177.131 436.849 176.21 435.111 176.21 433.142C176.21 431.173 177.131 429.409 179.151 429.409C181.17 429.409 182.091 431.173 182.091 433.142C182.091 435.111 181.17 436.849 179.151 436.849ZM187.411 432.094C187.411 430.381 188.472 429.409 189.916 429.409C191.316 429.409 192.166 430.323 192.166 431.864V438H193.675V431.761C193.675 429.256 192.339 428.054 190.351 428.054C188.868 428.054 187.948 428.719 187.487 429.716H187.36V428.182H185.902V438H187.411V432.094ZM200.701 428.182H198.605V425.83H197.096V428.182H195.613V429.46H197.096V435.597C197.096 437.31 198.477 438.128 199.755 438.128C200.318 438.128 200.676 438.026 200.88 437.949L200.574 436.594C200.446 436.619 200.241 436.67 199.909 436.67C199.244 436.67 198.605 436.466 198.605 435.188V429.46H200.701V428.182ZM202.971 438H204.479V431.787C204.479 430.457 205.527 429.486 206.959 429.486C207.362 429.486 207.777 429.562 207.88 429.588V428.054C207.707 428.041 207.311 428.028 207.087 428.028C205.911 428.028 204.888 428.693 204.53 429.665H204.428V428.182H202.971V438ZM213.358 438.205C216.017 438.205 217.806 436.185 217.806 433.142C217.806 430.074 216.017 428.054 213.358 428.054C210.699 428.054 208.909 430.074 208.909 433.142C208.909 436.185 210.699 438.205 213.358 438.205ZM213.358 436.849C211.338 436.849 210.417 435.111 210.417 433.142C210.417 431.173 211.338 429.409 213.358 429.409C215.377 429.409 216.298 431.173 216.298 433.142C216.298 435.111 215.377 436.849 213.358 436.849ZM221.618 424.909H220.109V438H221.618V424.909Z" fill="#7AE7FF"/>
<rect x="20" y="240" width="100" height="100" rx="3" fill="#212121"/>
<path d="M83.9993 320.381C83.5263 318.987 82.4652 318.054 80.522 318.054C78.451 318.054 76.9169 319.23 76.9169 320.892C76.9169 322.247 77.7223 323.155 79.5249 323.577L81.1612 323.96C82.152 324.19 82.6186 324.663 82.6186 325.341C82.6186 326.185 81.7237 326.875 80.3175 326.875C79.0838 326.875 78.3104 326.344 78.0419 325.29L76.6101 325.648C76.9616 327.316 78.3359 328.205 80.343 328.205C82.625 328.205 84.1783 326.958 84.1783 325.264C84.1783 323.896 83.3217 323.033 81.5703 322.605L80.1129 322.247C78.9496 321.96 78.4254 321.57 78.4254 320.815C78.4254 319.972 79.3203 319.358 80.522 319.358C81.8388 319.358 82.3821 320.087 82.6442 320.764L83.9993 320.381ZM87.9576 322.094C87.9576 320.381 89.0506 319.409 90.54 319.409C91.959 319.409 92.8155 320.304 92.8155 321.864V328H94.324V321.761C94.324 319.237 92.9817 318.054 90.9746 318.054C89.4277 318.054 88.5456 318.7 88.0854 319.716H87.9576V314.909H86.449V328H87.9576V322.094ZM97.0838 328H98.5923V318.182H97.0838V328ZM97.8509 316.545C98.4389 316.545 98.9247 316.085 98.9247 315.523C98.9247 314.96 98.4389 314.5 97.8509 314.5C97.2628 314.5 96.777 314.96 96.777 315.523C96.777 316.085 97.2628 316.545 97.8509 316.545ZM105.727 318.182H103.529V317.185C103.529 316.213 103.938 315.702 104.935 315.702C105.369 315.702 105.625 315.804 105.779 315.855L106.213 314.551C105.983 314.449 105.523 314.295 104.781 314.295C103.375 314.295 102.02 315.139 102.02 316.827V318.182H100.435V319.46H102.02V328H103.529V319.46H105.727V318.182ZM112.112 318.182H110.015V315.83H108.506V318.182H107.023V319.46H108.506V325.597C108.506 327.31 109.887 328.128 111.165 328.128C111.728 328.128 112.086 328.026 112.29 327.949L111.984 326.594C111.856 326.619 111.651 326.67 111.319 326.67C110.654 326.67 110.015 326.466 110.015 325.188V319.46H112.112V318.182Z" fill="#7AE7FF"/>
<rect x="1230" y="240" width="100" height="100" rx="3" fill="#212121"/>
<path d="M1274.14 298.568V293.045H1292.58V278.727H1283.51V281.182H1290.12V290.591H1274.14V285.068L1267.39 291.818L1274.14 298.568Z" fill="white"/>
<path d="M1294 320.381C1293.53 318.987 1292.47 318.054 1290.52 318.054C1288.45 318.054 1286.92 319.23 1286.92 320.892C1286.92 322.247 1287.72 323.155 1289.52 323.577L1291.16 323.96C1292.15 324.19 1292.62 324.663 1292.62 325.341C1292.62 326.185 1291.72 326.875 1290.32 326.875C1289.08 326.875 1288.31 326.344 1288.04 325.29L1286.61 325.648C1286.96 327.316 1288.34 328.205 1290.34 328.205C1292.62 328.205 1294.18 326.958 1294.18 325.264C1294.18 323.896 1293.32 323.033 1291.57 322.605L1290.11 322.247C1288.95 321.96 1288.43 321.57 1288.43 320.815C1288.43 319.972 1289.32 319.358 1290.52 319.358C1291.84 319.358 1292.38 320.087 1292.64 320.764L1294 320.381ZM1297.96 322.094C1297.96 320.381 1299.05 319.409 1300.54 319.409C1301.96 319.409 1302.82 320.304 1302.82 321.864V328H1304.32V321.761C1304.32 319.237 1302.98 318.054 1300.97 318.054C1299.43 318.054 1298.55 318.7 1298.09 319.716H1297.96V314.909H1296.45V328H1297.96V322.094ZM1307.08 328H1308.59V318.182H1307.08V328ZM1307.85 316.545C1308.44 316.545 1308.92 316.085 1308.92 315.523C1308.92 314.96 1308.44 314.5 1307.85 314.5C1307.26 314.5 1306.78 314.96 1306.78 315.523C1306.78 316.085 1307.26 316.545 1307.85 316.545ZM1315.73 318.182H1313.53V317.185C1313.53 316.213 1313.94 315.702 1314.93 315.702C1315.37 315.702 1315.63 315.804 1315.78 315.855L1316.21 314.551C1315.98 314.449 1315.52 314.295 1314.78 314.295C1313.38 314.295 1312.02 315.139 1312.02 316.827V318.182H1310.43V319.46H1312.02V328H1313.53V319.46H1315.73V318.182ZM1322.11 318.182H1320.01V315.83H1318.51V318.182H1317.02V319.46H1318.51V325.597C1318.51 327.31 1319.89 328.128 1321.17 328.128C1321.73 328.128 1322.09 328.026 1322.29 327.949L1321.98 326.594C1321.86 326.619 1321.65 326.67 1321.32 326.67C1320.65 326.67 1320.01 326.466 1320.01 325.188V319.46H1322.11V318.182Z" fill="#7AE7FF"/>
<rect x="1230" y="350" width="100" height="100" rx="3" fill="#212121"/>
<path opacity="0.2" d="M1282.44 412L1292.62 401.818L1282.44 391.636L1280.69 393.386L1287.89 400.568H1269.23V403.068H1287.89L1280.69 410.273L1282.44 412Z" fill="white"/>
<rect x="790" y="240" width="100" height="100" rx="3" fill="#212121"/>
<path opacity="0.2" d="M829.084 278.727V302H831.72V284.318H831.947L839.22 302H841.766L849.038 284.318H849.266V302H851.902V278.727H848.538L840.629 298.045H840.357L832.447 278.727H829.084Z" fill="white"/>
<path d="M875.668 311H873.73L869.73 313.656V315.625L873.637 313.031H873.73V327H875.668V311Z" fill="#5CF300"/>
<rect x="790" y="20" width="100" height="100" rx="3" fill="#212121"/>
<path opacity="0.2" d="M846.232 58.7273V73.9091C846.232 77.3182 843.891 79.7727 840.004 79.7727C836.118 79.7727 833.777 77.3182 833.777 73.9091V58.7273H830.959V74.1364C830.959 78.9091 834.527 82.4091 840.004 82.4091C845.482 82.4091 849.05 78.9091 849.05 74.1364V58.7273H846.232Z" fill="white"/>
<path opacity="0.2" d="M872.683 48.2187C874.151 48.2187 875.792 47.7031 876.831 46.6406L877.964 48H880.183L877.972 45.3047C878.573 44.5313 879.245 43.2344 879.245 41H877.464C877.464 42.0938 877.214 43.0625 876.8 43.8672L873.323 39.625L874.495 38.75C875.808 37.7812 876.62 36.7187 876.62 35.1875C876.62 33.4062 875.151 31.8438 872.745 31.8438C870.401 31.8438 868.87 33.3125 868.87 35.4687C868.87 36.8906 869.644 37.9844 870.745 39.3125C868.878 40.6094 867.589 41.8125 867.589 43.75C867.589 46.3437 869.526 48.2187 872.683 48.2187ZM875.729 45.3047C874.847 46.1328 873.729 46.5938 872.62 46.5938C870.714 46.5938 869.464 45.25 869.464 43.75C869.464 43.3125 869.87 42.1875 871.308 41.125L871.901 40.6875L875.729 45.3047ZM872.19 38.25C871.409 37.2969 870.745 36.3906 870.745 35.5C870.745 34.5 871.589 33.4375 872.808 33.4375C873.964 33.4375 874.745 34.375 874.745 35.1875C874.745 36.2812 874.151 36.875 873.245 37.4687L872.19 38.25Z" fill="#EF9E00"/>
<path d="M869.372 107H871.403L878.528 92.8125V91H868.278V92.7187H876.528V92.8437L869.372 107Z" fill="#5CF300"/>
<path opacity="0.1" d="M799.585 108H801.17V102.145H806.847V100.739H801.17V96.3153H807.435V94.9091H799.585V108ZM814.113 108.179C816.727 108.179 818.549 106.651 818.562 104.523C818.549 102.867 817.443 101.461 816.03 101.199V101.122C817.258 100.803 818.063 99.6009 818.076 98.2074C818.063 96.2131 816.388 94.7301 814.113 94.7301C811.812 94.7301 810.137 96.2131 810.15 98.2074C810.137 99.6009 810.942 100.803 812.195 101.122V101.199C810.757 101.461 809.651 102.867 809.664 104.523C809.651 106.651 811.473 108.179 814.113 108.179ZM814.113 106.773C812.317 106.773 811.211 105.852 811.224 104.446C811.211 102.969 812.432 101.915 814.113 101.915C815.768 101.915 816.989 102.969 817.002 104.446C816.989 105.852 815.883 106.773 814.113 106.773ZM814.113 100.56C812.681 100.56 811.671 99.6648 811.684 98.3097C811.671 96.9801 812.643 96.1108 814.113 96.1108C815.557 96.1108 816.529 96.9801 816.542 98.3097C816.529 99.6648 815.519 100.56 814.113 100.56Z" fill="white"/>
<rect x="350" y="130" width="100" height="100" rx="3" fill="#212121"/>
<path opacity="0.2" d="M399 192C406.091 192 410.091 187.591 410.091 180.318C410.091 173.091 406.091 168.727 399.318 168.727H391.818V192H399ZM394.636 189.5V171.227H399.136C404.591 171.227 407.364 174.682 407.364 180.318C407.364 186 404.591 189.5 398.818 189.5H394.636Z" fill="white"/>
<path opacity="0.2" d="M436.233 161.25V159.719C434.421 159.719 433.858 158.891 433.858 157.062V153.937C433.858 152.664 433.46 151.719 431.671 151.367V151.133C433.46 150.781 433.858 149.836 433.858 148.562V145.437C433.858 143.609 434.421 142.781 436.233 142.781V141.25C433.171 141.25 432.171 142.562 432.171 145.437V147.937C432.171 149.648 431.569 150.312 429.827 150.312V152.187C431.569 152.187 432.171 152.852 432.171 154.562V157.062C432.171 159.938 433.171 161.25 436.233 161.25Z" fill="#EF9E00"/>
<rect x="350" y="240" width="100" height="100" rx="3" fill="#212121"/>
<path opacity="0.2" d="M409.905 286C409.041 281.227 405.223 278.409 400.541 278.409C394.587 278.409 390.268 283 390.268 290.364C390.268 297.727 394.587 302.318 400.541 302.318C405.223 302.318 409.041 299.5 409.905 294.727H407.087C406.405 297.955 403.632 299.682 400.541 299.682C396.314 299.682 392.996 296.409 392.996 290.364C392.996 284.318 396.314 281.045 400.541 281.045C403.632 281.045 406.405 282.773 407.087 286H409.905Z" fill="white"/>
<path opacity="0.2" d="M431.608 271.25H436.233V269.719H433.358V252.781H436.233V251.25H431.608V271.25Z" fill="#EF9E00"/>
<rect x="350" y="20" width="100" height="100" rx="3" fill="#212121"/>
<path opacity="0.2" d="M393.256 82H407.483V79.5H396.074V71.5909H406.574V69.0909H396.074V61.2273H407.301V58.7273H393.256V82Z" fill="white"/>
<path opacity="0.2" d="M433.717 48H435.279L436.006 43.5625H438.373L438.623 42H436.264L436.92 38H439.311L439.561 36.4375H437.178L437.904 32H436.342L435.615 36.4375H431.553L432.279 32H430.717L429.99 36.4375H427.623L427.373 38H429.732L429.076 42H426.686L426.436 43.5625H428.818L428.092 48H429.654L430.381 43.5625H434.443L433.717 48ZM430.639 42L431.295 38H435.357L434.701 42H430.639Z" fill="#EF9E00"/>
<path d="M433.559 107.219C436.66 107.219 438.965 105.273 438.965 102.656C438.965 100.625 437.762 99.1484 435.746 98.8125V98.6875C437.363 98.1953 438.371 96.8672 438.371 95.0625C438.371 92.7969 436.582 90.7812 433.621 90.7812C430.855 90.7812 428.559 92.4844 428.465 95H430.34C430.41 93.4062 431.926 92.4687 433.59 92.4687C435.355 92.4687 436.496 93.5391 436.496 95.1562C436.496 96.8437 435.176 97.9375 433.277 97.9375H431.996V99.6562H433.277C435.707 99.6562 437.059 100.891 437.059 102.656C437.059 104.352 435.582 105.5 433.527 105.5C431.676 105.5 430.207 104.547 430.09 103H428.121C428.238 105.516 430.457 107.219 433.559 107.219Z" fill="#5CF300"/>
<path opacity="0.1" d="M359.585 108H361.17V102.145H366.847V100.739H361.17V96.3153H367.435V94.9091H359.585V108ZM369.613 105.315H375.775V108H377.283V105.315H379.073V103.909H377.283V94.9091H375.366L369.613 104.011V105.315ZM375.775 103.909H371.326V103.807L375.672 96.929H375.775V103.909Z" fill="white"/>
<rect x="1010" y="350" width="100" height="100" rx="3" fill="#212121"/>
<path opacity="0.2" d="M1058.58 412L1060.33 410.25L1053.12 403.068H1071.78V400.568H1053.12L1060.33 393.364L1058.58 391.636L1048.39 401.818L1058.58 412Z" fill="white"/>
<path d="M1093.5 437.125C1094.28 437.125 1094.91 436.492 1094.91 435.719C1094.91 434.945 1094.28 434.312 1093.5 434.312C1092.73 434.312 1092.1 434.945 1092.1 435.719C1092.1 436.492 1092.73 437.125 1093.5 437.125Z" fill="#5CF300"/>
<rect x="1010" y="130" width="100" height="100" rx="3" fill="#212121"/>
<path opacity="0.2" d="M1053.82 192H1067.45V189.5H1056.64V168.727H1053.82V192Z" fill="white"/>
<path opacity="0.2" d="M1094.83 158L1101.83 151L1094.83 144L1093.63 145.203L1098.58 150.141H1085.75V151.859H1098.58L1093.63 156.812L1094.83 158Z" fill="#EF9E00"/>
<path d="M1093.1 217.219C1096.34 217.258 1098.45 214.82 1098.45 211.844C1098.45 208.75 1096.16 206.531 1093.42 206.531C1091.77 206.531 1090.35 207.336 1089.48 208.656H1089.35C1089.36 204.758 1090.88 202.5 1093.35 202.5C1095.04 202.5 1096.06 203.562 1096.42 205H1098.32C1097.93 202.516 1096.04 200.781 1093.35 200.781C1089.75 200.781 1087.54 203.969 1087.54 209.625C1087.54 215.539 1090.48 217.188 1093.1 217.219ZM1093.1 215.5C1091.1 215.5 1089.63 213.789 1089.64 211.875C1089.64 209.961 1091.18 208.25 1093.17 208.25C1095.13 208.25 1096.57 209.859 1096.57 211.844C1096.57 213.875 1095.07 215.5 1093.1 215.5Z" fill="#5CF300"/>
<rect x="1010" y="20" width="100" height="100" rx="3" fill="#212121"/>
<path opacity="0.2" d="M1070.77 70.3636C1070.77 63 1066.45 58.4091 1060.49 58.4091C1054.54 58.4091 1050.22 63 1050.22 70.3636C1050.22 77.7273 1054.54 82.3182 1060.49 82.3182C1066.45 82.3182 1070.77 77.7273 1070.77 70.3636ZM1068.04 70.3636C1068.04 76.4091 1064.72 79.6818 1060.49 79.6818C1056.27 79.6818 1052.95 76.4091 1052.95 70.3636C1052.95 64.3182 1056.27 61.0455 1060.49 61.0455C1064.72 61.0455 1068.04 64.3182 1068.04 70.3636Z" fill="white"/>
<path opacity="0.2" d="M1091.36 41.25C1091.36 45.1875 1092.42 48.4688 1094.33 51.25H1095.95C1094.45 49.1875 1093.26 44.9687 1093.26 41.25C1093.26 37.5312 1094.45 33.3125 1095.95 31.25H1094.33C1092.42 34.0312 1091.36 37.3125 1091.36 41.25Z" fill="#EF9E00"/>
<path d="M1092.89 90.7812C1089.64 90.7422 1087.54 93.1875 1087.54 96.125C1087.54 99.2187 1089.82 101.438 1092.57 101.438C1094.23 101.438 1095.64 100.625 1096.51 99.3125H1096.64C1096.64 103.25 1095.1 105.5 1092.64 105.5C1090.95 105.5 1089.92 104.437 1089.57 102.969H1087.67C1088.04 105.5 1089.95 107.219 1092.64 107.219C1096.23 107.219 1098.45 104.031 1098.45 98.3438C1098.45 92.4687 1095.51 90.8125 1092.89 90.7812ZM1092.89 92.5C1094.89 92.5 1096.35 94.2187 1096.35 96.0937C1096.35 98 1094.79 99.7188 1092.82 99.7188C1090.85 99.7188 1089.42 98.125 1089.42 96.125C1089.42 94.125 1090.92 92.5 1092.89 92.5Z" fill="#5CF300"/>
<path opacity="0.1" d="M1019.59 108H1021.17V102.145H1026.85V100.739H1021.17V96.3153H1027.43V94.9091H1019.59V108ZM1034.52 94.9091H1032.94L1029.66 97.0824V98.6932L1032.86 96.571H1032.94V108H1034.52V94.9091ZM1042.56 108.179C1045.45 108.179 1047.11 105.731 1047.11 101.455C1047.11 97.2102 1045.42 94.7301 1042.56 94.7301C1039.69 94.7301 1038.01 97.2102 1038.01 101.455C1038.01 105.731 1039.67 108.179 1042.56 108.179ZM1042.56 106.773C1040.65 106.773 1039.54 104.862 1039.54 101.455C1039.54 98.054 1040.66 96.1108 1042.56 96.1108C1044.45 96.1108 1045.57 98.054 1045.57 101.455C1045.57 104.862 1044.46 106.773 1042.56 106.773Z" fill="white"/>
<rect x="570" y="350" width="210" height="100" rx="3" fill="#212121"/>
<rect x="570" y="130" width="100" height="100" rx="3" fill="#212121"/>
<path opacity="0.2" d="M626.837 176H629.746C628.882 171.5 625.109 168.409 620.2 168.409C614.234 168.409 610.018 173 610.018 180.364C610.018 187.727 614.2 192.318 620.382 192.318C625.928 192.318 629.882 188.625 629.882 182.864V180.364H621.018V182.864H627.155C627.075 187.045 624.325 189.682 620.382 189.682C616.064 189.682 612.746 186.409 612.746 180.364C612.746 174.318 616.064 171.045 620.2 171.045C623.564 171.045 625.848 172.943 626.837 176Z" fill="white"/>
<path opacity="0.2" d="M653.776 136.844H652.214V163.156H653.776V136.844Z" fill="#EF9E00"/>
<rect x="570" y="240" width="100" height="100" rx="3" fill="#212121"/>
<path opacity="0.2" d="M612.912 302H621.321C626.821 302 629.094 299.318 629.094 295.818C629.094 292.136 626.548 290.136 624.412 290V289.773C626.412 289.227 628.185 287.909 628.185 284.909C628.185 281.5 625.912 278.727 621.048 278.727H612.912V302ZM615.73 299.5V291.409H621.457C624.503 291.409 626.412 293.455 626.412 295.818C626.412 297.864 625.003 299.5 621.321 299.5H615.73ZM615.73 288.955V281.227H621.048C624.139 281.227 625.503 282.864 625.503 284.909C625.503 287.364 623.503 288.955 620.957 288.955H615.73Z" fill="white"/>
<path opacity="0.2" d="M649.579 251.25L654.735 270.406H656.423L651.267 251.25H649.579Z" fill="#EF9E00"/>
<rect x="570" y="20" width="100" height="100" rx="3" fill="#212121"/>
<path opacity="0.2" d="M611.78 61.2273H619.098V82H621.916V61.2273H629.234V58.7273H611.78V61.2273Z" fill="white"/>
<path opacity="0.2" d="M653.875 45C653.875 46.75 654.969 48.2187 657 48.2187C659 48.2187 660.094 46.75 660.094 45V44.1562C660.094 42.4062 659.031 40.9375 657 40.9375C655 40.9375 653.875 42.4062 653.875 44.1562V45ZM645.906 35.8438C645.906 37.5937 647 39.0625 649.031 39.0625C651.031 39.0625 652.125 37.5937 652.125 35.8438V35C652.125 33.25 651.062 31.7812 649.031 31.7812C647.031 31.7812 645.906 33.25 645.906 35V35.8438ZM646.5 48H648.281L659.281 32H657.5L646.5 48ZM655.469 44.1562C655.469 43.1875 655.906 42.2812 657 42.2812C658.125 42.2812 658.5 43.1875 658.5 44.1562V45C658.5 45.9687 658.094 46.875 657 46.875C655.875 46.875 655.469 45.9687 655.469 45V44.1562ZM647.5 35C647.5 34.0312 647.938 33.125 649.031 33.125C650.156 33.125 650.531 34.0312 650.531 35V35.8438C650.531 36.8125 650.125 37.7187 649.031 37.7187C647.906 37.7187 647.5 36.8125 647.5 35.8438V35Z" fill="#EF9E00"/>
<path d="M652.964 107.219C656.011 107.219 658.245 104.969 658.245 101.906C658.245 98.8047 656.089 96.5312 653.151 96.5312C652.073 96.5312 651.026 96.9141 650.37 97.4375H650.276L650.839 92.7187H657.526V91H649.214L648.245 98.875L650.058 99.0938C650.722 98.6172 651.854 98.2734 652.839 98.2812C654.878 98.2969 656.37 99.8437 656.37 101.937C656.37 103.992 654.933 105.5 652.964 105.5C651.323 105.5 650.019 104.445 649.87 103H647.995C648.112 105.438 650.214 107.219 652.964 107.219Z" fill="#5CF300"/>
<path opacity="0.1" d="M579.585 108H581.17V102.145H586.847V100.739H581.17V96.3153H587.435V94.9091H579.585V108ZM594.266 108.179C596.912 108.211 598.638 106.217 598.638 103.781C598.638 101.25 596.765 99.4347 594.522 99.4347C593.173 99.4347 592.016 100.093 591.3 101.173H591.198C591.204 97.9837 592.444 96.1364 594.471 96.1364C595.851 96.1364 596.682 97.0057 596.976 98.1818H598.536C598.216 96.1491 596.67 94.7301 594.471 94.7301C591.524 94.7301 589.715 97.3381 589.715 101.966C589.715 106.805 592.118 108.153 594.266 108.179ZM594.266 106.773C592.623 106.773 591.422 105.373 591.428 103.807C591.434 102.241 592.694 100.841 594.317 100.841C595.922 100.841 597.104 102.158 597.104 103.781C597.104 105.443 595.871 106.773 594.266 106.773Z" fill="white"/>
<rect x="130" y="130" width="100" height="100" rx="3" fill="#212121"/>
<path opacity="0.2" d="M172.96 192L175.301 185.409H184.71L187.051 192H190.006L181.46 168.727H178.551L170.006 192H172.96ZM176.188 182.909L179.915 172.409H180.097L183.824 182.909H176.188Z" fill="white"/>
<path opacity="0.2" d="M211.358 151.25C211.358 155.188 212.421 158.469 214.327 161.25H215.952C214.452 159.188 213.265 154.969 213.265 151.25C213.265 147.531 214.452 143.312 215.952 141.25H214.327C212.421 144.031 211.358 147.312 211.358 151.25Z" fill="#EF9E00"/>
<rect x="130" y="240" width="100" height="100" rx="3" fill="#212121"/>
<path opacity="0.2" d="M172.045 302H188.091V299.5H175.409L187.955 280.773V278.727H171.909V281.227H184.591L172.045 299.955V302Z" fill="white"/>
<path opacity="0.2" d="M208.468 262.375L218.53 267.5V265.5L210.874 261.812V261.688L218.53 258V256L208.468 261.125V262.375Z" fill="#EF9E00"/>
<rect x="130" y="20" width="100" height="100" rx="3" fill="#212121"/>
<path opacity="0.2" d="M190.767 70.3636C190.767 63 186.449 58.4091 180.494 58.4091C174.54 58.4091 170.222 63 170.222 70.3636C170.222 77.7273 174.54 82.3182 180.494 82.3182C182.017 82.3182 183.426 82.0227 184.688 81.4545L186.722 84.1818H189.812L186.778 80.1477C189.256 78.1136 190.767 74.7273 190.767 70.3636ZM179.585 74.7273L183.04 79.25C182.244 79.5341 181.392 79.6818 180.494 79.6818C176.267 79.6818 172.949 76.4091 172.949 70.3636C172.949 64.3182 176.267 61.0455 180.494 61.0455C184.722 61.0455 188.04 64.3182 188.04 70.3636C188.04 73.875 186.926 76.4432 185.153 77.9886L182.676 74.7273H179.585Z" fill="white"/>
<path opacity="0.2" d="M147.614 40.3438C149.205 40.3438 150.503 39.0462 150.503 37.4545C150.503 35.8629 149.205 34.5653 147.614 34.5653C146.022 34.5653 144.724 35.8629 144.724 37.4545C144.724 39.0462 146.022 40.3438 147.614 40.3438ZM142.347 43.5909L145.108 40.8295L144.239 39.9602L141.477 42.7216L142.347 43.5909ZM152.881 43.5909L153.75 42.7216L150.989 39.9602L150.119 40.8295L152.881 43.5909ZM144.239 34.9489L145.108 34.0795L142.347 31.3182L141.477 32.1875L144.239 34.9489ZM150.989 34.9489L153.75 32.1875L152.881 31.3182L150.119 34.0795L150.989 34.9489ZM147 45.5085H148.227V41.6222H147V45.5085ZM139.56 38.0682H143.446V36.8409H139.56V38.0682ZM151.781 38.0682H155.668V36.8409H151.781V38.0682ZM147 33.2869H148.227V29.4006H147V33.2869Z" fill="#EF0182"/>
<path opacity="0.2" d="M214.563 32H212.438L212.595 43.5H214.407L214.563 32ZM213.501 48.125C214.274 48.125 214.907 47.4922 214.907 46.7187C214.907 45.9453 214.274 45.3125 213.501 45.3125C212.728 45.3125 212.095 45.9453 212.095 46.7187C212.095 47.4922 212.728 48.125 213.501 48.125Z" fill="#EF9E00"/>
<path d="M215.668 91H213.73L209.73 93.6562V95.625L213.637 93.0312H213.73V107H215.668V91Z" fill="#5CF300"/>
<path opacity="0.1" d="M139.585 108H141.17V102.145H146.847V100.739H141.17V96.3153H147.435V94.9091H139.585V108ZM149.92 108H158.178V106.594H152.093V106.491L155.033 103.347C157.283 100.937 157.948 99.8118 157.948 98.3608C157.948 96.3409 156.312 94.7301 154.01 94.7301C151.716 94.7301 149.971 96.2898 149.971 98.5909H151.479C151.479 97.1016 152.444 96.1108 153.959 96.1108C155.378 96.1108 156.465 96.9801 156.465 98.3608C156.465 99.5689 155.756 100.464 154.241 102.119L149.92 106.849V108Z" fill="white"/>
<rect x="1120" y="350" width="100" height="100" rx="3" fill="#212121"/>
<path opacity="0.2" d="M1171.76 388.727H1169.26V407.409L1162.05 400.205L1160.33 401.955L1170.51 412.136L1180.71 401.955L1178.94 400.205L1171.76 407.409V388.727Z" fill="white"/>
<path d="M1198.69 433.906H1208.31V432.219H1198.69V433.906ZM1198.69 429.281H1208.31V427.594H1198.69V429.281Z" fill="#5CF300"/>
<rect x="1120" y="240" width="100" height="100" rx="3" fill="#212121"/>
<path opacity="0.2" d="M1169.26 302H1171.76V283.318L1178.96 290.523L1180.69 288.773L1170.51 278.591L1160.3 288.773L1162.08 290.523L1169.26 283.318V302Z" fill="white"/>
<path d="M1202.62 325.906H1204.37V321.625H1208.66V319.875H1204.37V315.594H1202.62V319.875H1198.34V321.625H1202.62V325.906Z" fill="#5CF300"/>
<rect x="1120" y="20" width="100" height="100" rx="3" fill="#212121"/>
<path opacity="0.2" d="M1163.16 82H1165.98V73.5H1171.07C1176.49 73.5 1178.93 70.2045 1178.93 66.0909C1178.93 61.9773 1176.49 58.7273 1171.03 58.7273H1163.16V82ZM1165.98 71V61.2273H1170.93C1174.72 61.2273 1176.16 63.2955 1176.16 66.0909C1176.16 68.8864 1174.72 71 1170.98 71H1165.98Z" fill="white"/>
<path opacity="0.2" d="M1204.64 41.25C1204.64 37.3125 1203.58 34.0312 1201.67 31.25H1200.05C1201.55 33.3125 1202.73 37.5312 1202.73 41.25C1202.73 44.9687 1201.55 49.1875 1200.05 51.25H1201.67C1203.58 48.4688 1204.64 45.1875 1204.64 41.25Z" fill="#EF9E00"/>
<path d="M1203 107.219C1206.53 107.219 1208.56 104.227 1208.56 99C1208.56 93.8125 1206.5 90.7812 1203 90.7812C1199.5 90.7812 1197.44 93.8125 1197.44 99C1197.44 104.227 1199.47 107.219 1203 107.219ZM1203 105.5C1200.67 105.5 1199.31 103.164 1199.31 99C1199.31 94.8438 1200.69 92.4687 1203 92.4687C1205.31 92.4687 1206.69 94.8438 1206.69 99C1206.69 103.164 1205.33 105.5 1203 105.5Z" fill="#5CF300"/>
<path opacity="0.1" d="M1129.59 108H1131.17V102.145H1136.85V100.739H1131.17V96.3153H1137.43V94.9091H1129.59V108ZM1144.52 94.9091H1142.94L1139.66 97.0824V98.6932L1142.86 96.571H1142.94V108H1144.52V94.9091ZM1152.89 94.9091H1151.3L1148.03 97.0824V98.6932L1151.23 96.571H1151.3V108H1152.89V94.9091Z" fill="white"/>
<rect x="1230" y="20" width="100" height="100" rx="3" fill="#212121"/>
<path d="M1275.32 82H1297.05V58.7273H1275.32L1263.75 70.3636L1275.32 82ZM1276.33 79.5L1267.24 70.3636L1276.33 61.2273H1294.59V79.5H1276.33ZM1290.13 75.5L1284.98 70.3636L1290.13 65.2273L1288.47 63.5455L1283.31 68.6932L1278.15 63.5455L1276.49 65.2273L1281.64 70.3636L1276.49 75.5L1278.15 77.1818L1283.31 72.0341L1288.47 77.1818L1290.13 75.5Z" fill="white"/>
<path opacity="0.1" d="M1239.59 108H1241.17V102.145H1246.85V100.739H1241.17V96.3153H1247.43V94.9091H1239.59V108ZM1254.52 94.9091H1252.94L1249.66 97.0824V98.6932L1252.86 96.571H1252.94V108H1254.52V94.9091ZM1258.29 108H1266.55V106.594H1260.46V106.491L1263.4 103.347C1265.65 100.937 1266.32 99.8118 1266.32 98.3608C1266.32 96.3409 1264.68 94.7301 1262.38 94.7301C1260.08 94.7301 1258.34 96.2898 1258.34 98.5909H1259.85C1259.85 97.1016 1260.81 96.1108 1262.33 96.1108C1263.75 96.1108 1264.83 96.9801 1264.83 98.3608C1264.83 99.5689 1264.12 100.464 1262.61 102.119L1258.29 106.849V108Z" fill="white"/>
<rect x="680" y="130" width="100" height="100" rx="3" fill="#212121"/>
<path opacity="0.2" d="M720.974 192H723.793V181.591H736.202V192H739.02V168.727H736.202V179.091H723.793V168.727H720.974V192Z" fill="white"/>
<path opacity="0.2" d="M762.177 158L763.38 156.797L758.427 151.859H771.255V150.141H758.427L763.38 145.187L762.177 144L755.177 151L762.177 158Z" fill="#EF9E00"/>
<path d="M766.423 200.25H764.735L759.579 219.406H761.267L766.423 200.25Z" fill="#5CF300"/>
<rect x="680" y="240" width="100" height="100" rx="3" fill="#212121"/>
<path opacity="0.2" d="M739.726 278.727H736.953V297.045H736.726L723.999 278.727H721.271V302H724.089V283.727H724.317L736.999 302H739.726V278.727Z" fill="white"/>
<path d="M762.75 320H764.25L764.125 316.562L767.031 318.406L767.781 317.094L764.719 315.5L767.781 313.906L767.031 312.594L764.125 314.437L764.25 311H762.75L762.875 314.437L759.969 312.594L759.219 313.906L762.281 315.5L759.219 317.094L759.969 318.406L762.875 316.562L762.75 320Z" fill="#5CF300"/>
<rect x="680" y="20" width="100" height="100" rx="3" fill="#212121"/>
<path opacity="0.2" d="M720.178 58.7273L728.587 72.4091V82H731.405V72.4091L739.814 58.7273H736.587L730.132 69.5909H729.859L723.405 58.7273H720.178Z" fill="white"/>
<path opacity="0.2" d="M759.219 39.25H761.094L763.453 34.1562H763.555L765.938 39.25H767.781L764.563 32.5H762.438L759.219 39.25Z" fill="#EF9E00"/>
<path d="M763.104 107.219C766.339 107.258 768.448 104.82 768.448 101.844C768.448 98.75 766.159 96.5312 763.417 96.5312C761.769 96.5312 760.354 97.3359 759.479 98.6562H759.354C759.362 94.7578 760.878 92.5 763.354 92.5C765.042 92.5 766.058 93.5625 766.417 95H768.323C767.933 92.5156 766.042 90.7812 763.354 90.7812C759.753 90.7812 757.542 93.9687 757.542 99.625C757.542 105.539 760.479 107.188 763.104 107.219ZM763.104 105.5C761.097 105.5 759.628 103.789 759.636 101.875C759.644 99.9609 761.183 98.25 763.167 98.25C765.128 98.25 766.573 99.8594 766.573 101.844C766.573 103.875 765.065 105.5 763.104 105.5Z" fill="#5CF300"/>
<path opacity="0.1" d="M689.585 108H691.17V102.145H696.847V100.739H691.17V96.3153H697.435V94.9091H689.585V108ZM700.329 108H701.991L707.82 96.392V94.9091H699.434V96.3153H706.184V96.4176L700.329 108Z" fill="white"/>
<rect x="240" y="130" width="100" height="100" rx="3" fill="#212121"/>
<path opacity="0.2" d="M295.842 174.545H298.57C298.445 171.034 295.206 168.409 290.706 168.409C286.251 168.409 282.751 171 282.751 174.909C282.751 178.045 285.024 179.909 288.661 180.955L291.524 181.773C293.979 182.455 296.161 183.318 296.161 185.636C296.161 188.182 293.706 189.864 290.479 189.864C287.706 189.864 285.251 188.636 285.024 186H282.115C282.388 189.818 285.479 192.409 290.479 192.409C295.842 192.409 298.888 189.455 298.888 185.682C298.888 181.318 294.751 179.909 292.342 179.273L289.979 178.636C288.251 178.182 285.479 177.273 285.479 174.773C285.479 172.545 287.524 170.909 290.615 170.909C293.433 170.909 295.57 172.25 295.842 174.545Z" fill="white"/>
<path opacity="0.2" d="M324.64 151.25C324.64 147.312 323.577 144.031 321.671 141.25H320.046C321.546 143.312 322.733 147.531 322.733 151.25C322.733 154.969 321.546 159.188 320.046 161.25H321.671C323.577 158.469 324.64 155.188 324.64 151.25Z" fill="#EF9E00"/>
<rect x="240" y="240" width="100" height="100" rx="3" fill="#212121"/>
<path opacity="0.2" d="M284.416 278.727H281.098L288.598 290.364L281.098 302H284.416L290.416 292.5H290.598L296.598 302H299.916L292.598 290.364L299.916 278.727H296.598L290.598 288.409H290.416L284.416 278.727Z" fill="white"/>
<path opacity="0.2" d="M328.53 262.375V261.125L318.468 256V258L326.124 261.688V261.812L318.468 265.5V267.5L328.53 262.375Z" fill="#EF9E00"/>
<rect x="240" y="20" width="100" height="100" rx="3" fill="#212121"/>
<path opacity="0.2" d="M282.358 82H285.267L290.403 63.4545H290.585L295.722 82H298.631L304.994 58.7273H302.131L297.267 77.6818H297.04L292.085 58.7273H288.903L283.949 77.6818H283.722L278.858 58.7273H275.994L282.358 82Z" fill="white"/>
<path opacity="0.2" d="M324.104 52.2188C325.698 52.2188 327.729 51.75 328.698 51.3438L328.261 49.9062C327.698 50.0938 325.886 50.7188 324.167 50.7188C318.823 50.7188 315.979 47.7187 315.979 42.4062C315.979 37.1875 318.886 34.0625 323.792 34.0625C328.761 34.0625 331.104 37.5625 331.104 41.0625C331.104 44.625 330.729 46.2187 329.136 46.2187C328.198 46.2187 327.698 45.4375 327.698 44.5625V37.5H326.042V38.375H325.948C325.729 37.6875 324.511 37.0937 322.948 37.25C320.604 37.5 318.823 39.4375 318.823 42.25C318.823 45.2188 320.229 47.5 322.948 47.5937C324.729 47.6562 325.667 46.7812 326.042 45.875H326.136C326.323 47.2188 328.011 47.6875 329.104 47.6875C332.417 47.6875 332.729 44.125 332.729 41.0937C332.729 36.8125 329.729 32.5937 323.886 32.5937C317.854 32.5937 314.261 36.25 314.261 42.3437C314.261 48.6563 317.729 52.2188 324.104 52.2188ZM323.198 46C321.167 46 320.448 44.1562 320.448 42.1562C320.448 40.3437 321.479 38.7812 323.261 38.7812C325.136 38.7812 326.136 39.5312 326.136 42.1562C326.136 44.75 325.292 46 323.198 46Z" fill="#EF9E00"/>
<path d="M317.996 107H328.09V105.281H320.652V105.156L324.246 101.312C326.996 98.3672 327.809 96.9922 327.809 95.2187C327.809 92.75 325.809 90.7812 322.996 90.7812C320.191 90.7812 318.059 92.6875 318.059 95.5H319.902C319.902 93.6797 321.082 92.4687 322.934 92.4687C324.668 92.4687 325.996 93.5312 325.996 95.2187C325.996 96.6953 325.129 97.7891 323.277 99.8125L317.996 105.594V107Z" fill="#5CF300"/>
<path opacity="0.1" d="M249.585 108H251.17V102.145H256.847V100.739H251.17V96.3153H257.435V94.9091H249.585V108ZM264.343 108.179C266.881 108.179 268.766 106.587 268.766 104.446C268.766 102.784 267.782 101.576 266.133 101.301V101.199C267.456 100.796 268.28 99.7095 268.28 98.233C268.28 96.3793 266.817 94.7301 264.394 94.7301C262.131 94.7301 260.252 96.1236 260.175 98.1818H261.709C261.767 96.8778 263.007 96.1108 264.368 96.1108C265.813 96.1108 266.746 96.9865 266.746 98.3097C266.746 99.6903 265.666 100.585 264.113 100.585H263.064V101.991H264.113C266.101 101.991 267.206 103.001 267.206 104.446C267.206 105.833 265.998 106.773 264.317 106.773C262.802 106.773 261.601 105.993 261.505 104.727H259.894C259.99 106.786 261.805 108.179 264.343 108.179Z" fill="white"/>
<rect x="900" y="130" width="100" height="100" rx="3" fill="#212121"/>
<path opacity="0.2" d="M942.881 192H945.699V184.455L948.608 181.182L956.699 192H960.108L950.335 179.227L960.108 168.727H956.426L945.972 180.273H945.699V168.727H942.881V192Z" fill="white"/>
<path opacity="0.2" d="M982.646 158H984.364V145.156L989.317 150.109L990.505 148.906L983.505 141.906L976.489 148.906L977.708 150.109L982.646 145.156V158Z" fill="#EF9E00"/>
<path d="M982.964 217.219C986.011 217.219 988.245 214.969 988.245 211.906C988.245 208.805 986.089 206.531 983.151 206.531C982.073 206.531 981.026 206.914 980.37 207.437H980.276L980.839 202.719H987.526V201H979.214L978.245 208.875L980.058 209.094C980.722 208.617 981.854 208.273 982.839 208.281C984.878 208.297 986.37 209.844 986.37 211.937C986.37 213.992 984.933 215.5 982.964 215.5C981.323 215.5 980.019 214.445 979.87 213H977.995C978.112 215.438 980.214 217.219 982.964 217.219Z" fill="#5CF300"/>
<rect x="900" y="20" width="100" height="100" rx="3" fill="#212121"/>
<path opacity="0.2" d="M951.902 58.7273H949.084V82H951.902V58.7273Z" fill="white"/>
<path opacity="0.2" d="M982.75 41H984.25L984.125 37.5625L987.031 39.4062L987.781 38.0937L984.719 36.5L987.781 34.9062L987.031 33.5937L984.125 35.4375L984.25 32H982.75L982.875 35.4375L979.969 33.5937L979.219 34.9062L982.281 36.5L979.219 38.0937L979.969 39.4062L982.875 37.5625L982.75 41Z" fill="#EF9E00"/>
<path d="M983.003 107.219C986.198 107.219 988.425 105.352 988.44 102.75C988.425 100.727 987.073 99.0078 985.347 98.6875V98.5937C986.847 98.2031 987.831 96.7344 987.847 95.0312C987.831 92.5937 985.784 90.7812 983.003 90.7812C980.19 90.7812 978.144 92.5937 978.159 95.0312C978.144 96.7344 979.128 98.2031 980.659 98.5937V98.6875C978.901 99.0078 977.55 100.727 977.565 102.75C977.55 105.352 979.776 107.219 983.003 107.219ZM983.003 105.5C980.808 105.5 979.456 104.375 979.472 102.656C979.456 100.852 980.948 99.5625 983.003 99.5625C985.026 99.5625 986.519 100.852 986.534 102.656C986.519 104.375 985.167 105.5 983.003 105.5ZM983.003 97.9062C981.253 97.9062 980.019 96.8125 980.034 95.1562C980.019 93.5312 981.206 92.4687 983.003 92.4687C984.769 92.4687 985.956 93.5312 985.972 95.1562C985.956 96.8125 984.722 97.9062 983.003 97.9062Z" fill="#5CF300"/>
<path opacity="0.1" d="M909.585 108H911.17V102.145H916.847V100.739H911.17V96.3153H917.435V94.9091H909.585V108ZM924.087 94.7301C921.428 94.6982 919.715 96.6989 919.715 99.1023C919.715 101.634 921.581 103.449 923.831 103.449C925.187 103.449 926.337 102.784 927.053 101.71H927.155C927.155 104.932 925.903 106.773 923.883 106.773C922.502 106.773 921.658 105.903 921.377 104.702H919.817C920.124 106.773 921.684 108.179 923.883 108.179C926.823 108.179 928.638 105.571 928.638 100.918C928.638 96.1108 926.235 94.7557 924.087 94.7301ZM924.087 96.1364C925.724 96.1364 926.925 97.5426 926.925 99.0767C926.925 100.636 925.647 102.043 924.036 102.043C922.425 102.043 921.249 100.739 921.249 99.1023C921.249 97.4659 922.476 96.1364 924.087 96.1364Z" fill="white"/>
<rect x="460" y="240" width="100" height="100" rx="3" fill="#212121"/>
<path opacity="0.2" d="M502.96 278.727H500.006L508.551 302H511.46L520.006 278.727H517.051L510.142 298.318H509.869L502.96 278.727Z" fill="white"/>
<path opacity="0.2" d="M544.39 251.25H539.765V252.781H542.64V269.719H539.765V271.25H544.39V251.25Z" fill="#EF9E00"/>
<rect x="790" y="350" width="100" height="100" rx="3" fill="#212121"/>
<path opacity="0.5" d="M814.824 422.926L804.938 432.83L804.955 425.193H803.097V436H813.886L813.903 434.159H806.267L816.153 424.256L814.824 422.926Z" fill="white"/>
<rect x="460" y="350" width="100" height="100" rx="3" fill="#5CF300"/>
<path d="M549.333 427.094H547.63L547.646 434.094L538.583 425.016L537.364 426.234L546.427 435.312H539.427L539.442 437H549.333V427.094Z" fill="#212121"/>
<rect x="460" y="20" width="100" height="100" rx="3" fill="#212121"/>
<path opacity="0.2" d="M503.084 82H505.902V72.9091H510.993C511.197 72.9091 511.391 72.9091 511.584 72.8977L516.493 82H519.766L514.504 72.3864C517.47 71.375 518.857 68.9545 518.857 65.8636C518.857 61.75 516.402 58.7273 510.947 58.7273H503.084V82ZM505.902 70.3636V61.2273H510.857C514.629 61.2273 516.084 63.0682 516.084 65.8636C516.084 68.6591 514.629 70.3636 510.902 70.3636H505.902Z" fill="white"/>
<path opacity="0.2" d="M542.86 50H544.142V48.2578C547.423 48.0313 549.267 46.0938 549.267 43.6562C549.267 40.6562 546.423 39.6875 544.767 39.25L544.142 39.0781V33.5234C545.798 33.6875 547.001 34.5781 547.173 36H549.048C548.97 33.7187 546.97 31.9844 544.142 31.7969V30H542.86V31.8203C540.181 32.0937 538.173 33.7969 538.173 36.25C538.173 38.4062 539.735 39.6875 542.235 40.4062L542.86 40.5859V46.5C541.22 46.3281 539.876 45.4844 539.735 43.875H537.735C537.915 46.3359 539.79 48.0547 542.86 48.2578V50ZM544.142 46.5V40.9531L544.204 40.9687C545.892 41.4375 547.392 42.0313 547.392 43.625C547.392 45.1953 546.032 46.2891 544.142 46.5ZM542.86 38.7344C541.673 38.3984 540.048 37.7422 540.048 36.1562C540.048 34.8047 541.142 33.7734 542.86 33.5469V38.7344Z" fill="#EF9E00"/>
<path d="M537.724 103.719H545.255V107H547.099V103.719H549.286V102H547.099V91H544.755L537.724 102.125V103.719ZM545.255 102H539.817V101.875L545.13 93.4688H545.255V102Z" fill="#5CF300"/>
<path opacity="0.1" d="M469.585 108H471.17V102.145H476.847V100.739H471.17V96.3153H477.435V94.9091H469.585V108ZM484.01 108.179C486.503 108.179 488.331 106.338 488.331 103.832C488.331 101.295 486.567 99.4347 484.164 99.4347C483.282 99.4347 482.425 99.7479 481.888 100.176H481.812L482.272 96.3153H487.743V94.9091H480.942L480.15 101.352L481.633 101.531C482.176 101.141 483.103 100.86 483.908 100.866C485.577 100.879 486.797 102.145 486.797 103.858C486.797 105.539 485.621 106.773 484.01 106.773C482.668 106.773 481.601 105.91 481.479 104.727H479.945C480.041 106.722 481.76 108.179 484.01 108.179Z" fill="white"/>
<rect x="20" y="20" width="100" height="100" rx="3" fill="#212121"/>
<path opacity="0.2" d="M72.267 77.1136L79.017 70.3636L72.267 63.6136V69.1364H57.2216V71.5909H72.267V77.1136ZM81.3125 77.0909H83.767V63.6364H81.3125V77.0909Z" fill="white"/>
<path opacity="0.2" d="M37.6136 40.3438C39.2053 40.3438 40.5028 39.0462 40.5028 37.4545C40.5028 35.8629 39.2053 34.5653 37.6136 34.5653C36.022 34.5653 34.7244 35.8629 34.7244 37.4545C34.7244 39.0462 36.022 40.3438 37.6136 40.3438ZM37.6136 39.0653C36.7251 39.0653 36.0028 38.343 36.0028 37.4545C36.0028 36.5661 36.7251 35.8438 37.6136 35.8438C38.5021 35.8438 39.2244 36.5661 39.2244 37.4545C39.2244 38.343 38.5021 39.0653 37.6136 39.0653ZM32.3466 43.5909L35.108 40.8295L34.2386 39.9602L31.4773 42.7216L32.3466 43.5909ZM42.8807 43.5909L43.75 42.7216L40.9886 39.9602L40.1193 40.8295L42.8807 43.5909ZM34.2386 34.9489L35.108 34.0795L32.3466 31.3182L31.4773 32.1875L34.2386 34.9489ZM40.9886 34.9489L43.75 32.1875L42.8807 31.3182L40.1193 34.0795L40.9886 34.9489ZM37 45.5085H38.2273V41.6222H37V45.5085ZM29.5597 38.0682H33.446V36.8409H29.5597V38.0682ZM41.7812 38.0682H45.6676V36.8409H41.7812V38.0682ZM37 33.2869H38.2273V29.4006H37V33.2869Z" fill="#EF0182"/>
<path opacity="0.2" d="M98.0615 43.25H99.749C99.7256 41.8906 100.343 41.3438 101.187 41.3438C101.741 41.3438 102.108 41.5859 102.874 42.25C104.015 43.2422 104.78 43.6875 105.843 43.6875C107.437 43.6875 108.983 42.6875 108.937 40.0938H107.249C107.272 41.3359 106.702 42 105.812 42C105.257 42 104.89 41.7578 104.124 41.0937C102.983 40.1016 102.218 39.6562 101.155 39.6562C99.5615 39.6562 98.0146 40.6562 98.0615 43.25Z" fill="#EF9E00"/>
<path d="M103.907 93.375H105.532L103.626 89.75H101.47L103.907 93.375Z" fill="#5CF300"/>
<path opacity="0.1" d="M29.5852 108H31.1705V102.145H36.8466V100.739H31.1705V96.3153H37.4347V94.9091H29.5852V108ZM44.5218 94.9091H42.9366L39.6639 97.0824V98.6932L42.8599 96.571H42.9366V108H44.5218V94.9091Z" fill="white"/>
<rect x="1010" y="240" width="100" height="100" rx="3" fill="#212121"/>
<path opacity="0.2" d="M1060.5 318.182C1061.63 318.182 1062.55 317.261 1062.55 316.136C1062.55 315.011 1061.63 314.091 1060.5 314.091C1059.38 314.091 1058.46 315.011 1058.46 316.136C1058.46 317.261 1059.38 318.182 1060.5 318.182Z" fill="white"/>
<path opacity="0.2" d="M1067.32 275.818V274L1052.68 266.545V269.455L1063.82 274.818V275L1052.68 280.364V283.273L1067.32 275.818Z" fill="white"/>
<path d="M1093.56 327.219C1096.66 327.219 1098.96 325.273 1098.96 322.656C1098.96 320.625 1097.76 319.148 1095.75 318.812V318.688C1097.36 318.195 1098.37 316.867 1098.37 315.063C1098.37 312.797 1096.58 310.781 1093.62 310.781C1090.86 310.781 1088.56 312.484 1088.46 315H1090.34C1090.41 313.406 1091.93 312.469 1093.59 312.469C1095.36 312.469 1096.5 313.539 1096.5 315.156C1096.5 316.844 1095.18 317.937 1093.28 317.937H1092V319.656H1093.28C1095.71 319.656 1097.06 320.891 1097.06 322.656C1097.06 324.352 1095.58 325.5 1093.53 325.5C1091.68 325.5 1090.21 324.547 1090.09 323H1088.12C1088.24 325.516 1090.46 327.219 1093.56 327.219Z" fill="#5CF300"/>
<rect x="1230" y="130" width="100" height="100" rx="3" fill="#212121"/>
<path opacity="0.2" d="M1278.08 193.091H1280.03L1281.94 184.727H1278.89L1278.08 193.091Z" fill="white"/>
<path opacity="0.2" d="M1275.61 159.091H1277.56L1279.47 150.727H1276.42L1275.61 159.091ZM1281.52 159.091H1283.47L1285.38 150.727H1282.33L1281.52 159.091Z" fill="white"/>
<path opacity="0.2" d="M1312.62 156.906H1314.37V152.625H1318.66V150.875H1314.37V146.594H1312.62V150.875H1308.34V152.625H1312.62V156.906Z" fill="#EF9E00"/>
<path d="M1308.69 213.906H1318.31V212.219H1308.69V213.906ZM1308.69 209.281H1318.31V207.594H1308.69V209.281Z" fill="#5CF300"/>
<rect x="900" y="240" width="100" height="100" rx="3" fill="#212121"/>
<path opacity="0.2" d="M952.47 314.818H949.561L949.425 316.091C949.095 319.17 948.447 322.239 948.152 323.682H950.197C950.743 322.136 951.902 318.636 952.288 316.045L952.47 314.818Z" fill="white"/>
<path opacity="0.2" d="M942.68 275.818L957.317 283.273V280.364L946.18 275V274.818L957.317 269.455V266.545L942.68 274V275.818Z" fill="white"/>
<path d="M977.996 327H988.09V325.281H980.652V325.156L984.246 321.312C986.996 318.367 987.809 316.992 987.809 315.219C987.809 312.75 985.809 310.781 982.996 310.781C980.191 310.781 978.059 312.687 978.059 315.5H979.902C979.902 313.68 981.082 312.469 982.934 312.469C984.668 312.469 985.996 313.531 985.996 315.219C985.996 316.695 985.129 317.789 983.277 319.812L977.996 325.594V327Z" fill="#5CF300"/>
<rect x="1120" y="130" width="100" height="100" rx="3" fill="#212121"/>
<path opacity="0.2" d="M1172.47 204.818H1169.56L1169.42 206.091C1169.1 209.17 1168.45 212.239 1168.15 213.682H1170.2C1170.74 212.136 1171.9 208.636 1172.29 206.045L1172.47 204.818ZM1170.83 195.227C1171.96 195.227 1172.88 194.307 1172.88 193.182C1172.88 192.057 1171.96 191.136 1170.83 191.136C1169.71 191.136 1168.79 192.057 1168.79 193.182C1168.79 194.307 1169.71 195.227 1170.83 195.227Z" fill="white"/>
<path opacity="0.2" d="M1170.5 174.182C1171.63 174.182 1172.55 173.261 1172.55 172.136C1172.55 171.011 1171.63 170.091 1170.5 170.091C1169.38 170.091 1168.46 171.011 1168.46 172.136C1168.46 173.261 1169.38 174.182 1170.5 174.182ZM1170.5 161.227C1171.63 161.227 1172.55 160.307 1172.55 159.182C1172.55 158.057 1171.63 157.136 1170.5 157.136C1169.38 157.136 1168.46 158.057 1168.46 159.182C1168.46 160.307 1169.38 161.227 1170.5 161.227Z" fill="white"/>
<path opacity="0.2" d="M1208 158H1198V159.719H1208V158Z" fill="#EF9E00"/>
<path d="M1208.5 209.875H1198.5V211.625H1208.5V209.875Z" fill="#5CF300"/>
<rect x="900" y="350" width="100" height="100" rx="3" fill="#212121"/>
<path opacity="0.2" d="M954.979 403.636H952.524L945.024 431.5H947.479L954.979 403.636Z" fill="white"/>
<path opacity="0.2" d="M948.345 387.455H951.072V387.318C951.118 384.5 951.845 383.273 953.845 382.023C955.845 380.807 957.027 379.057 957.027 376.545C957.027 373 954.436 370.409 950.436 370.409C946.754 370.409 943.834 372.682 943.663 376.545H946.527C946.697 373.864 948.572 372.773 950.436 372.773C952.572 372.773 954.3 374.182 954.3 376.409C954.3 378.216 953.266 379.511 951.936 380.318C949.709 381.67 948.379 382.989 948.345 387.318V387.455ZM949.8 394.182C950.925 394.182 951.845 393.261 951.845 392.136C951.845 391.011 950.925 390.091 949.8 390.091C948.675 390.091 947.754 391.011 947.754 392.136C947.754 393.261 948.675 394.182 949.8 394.182Z" fill="white"/>
<path d="M983 437.219C986.531 437.219 988.563 434.227 988.563 429C988.563 423.813 986.5 420.781 983 420.781C979.5 420.781 977.438 423.813 977.438 429C977.438 434.227 979.469 437.219 983 437.219ZM983 435.5C980.672 435.5 979.313 433.164 979.313 429C979.313 424.844 980.688 422.469 983 422.469C985.313 422.469 986.688 424.844 986.688 429C986.688 433.164 985.328 435.5 983 435.5Z" fill="#5CF300"/>
<rect x="20" y="130" width="100" height="100" rx="3" fill="#212121"/>
<path d="M70.5071 171.227C75.5639 171.227 79.6321 175.307 79.6435 180.364C79.6548 185.42 75.5639 189.5 70.5071 189.5C65.4616 189.5 61.3594 185.409 61.3707 180.364H58.8707C58.8594 186.795 64.0866 192 70.5071 192C76.9503 192 82.1548 186.795 82.1435 180.364C82.1321 173.932 76.9503 168.727 70.5071 168.727V171.227ZM58.8707 176.727L62.0071 173.591L69.6435 181.227L71.3707 179.5L63.7344 171.864L66.8707 168.727H58.8707V176.727Z" fill="white"/>
<path d="M59.0959 218.205C61.2692 218.205 62.701 216.875 62.9567 215.136H61.4482C61.1669 216.21 60.272 216.849 59.0959 216.849C57.3061 216.849 56.1555 215.366 56.1555 213.091C56.1555 210.866 57.3317 209.409 59.0959 209.409C60.4254 209.409 61.218 210.227 61.4482 211.122H62.9567C62.701 209.281 61.1413 208.054 59.0703 208.054C56.4112 208.054 54.647 210.151 54.647 213.142C54.647 216.082 56.3345 218.205 59.0959 218.205ZM69.1506 218.205C71.8097 218.205 73.5994 216.185 73.5994 213.142C73.5994 210.074 71.8097 208.054 69.1506 208.054C66.4915 208.054 64.7017 210.074 64.7017 213.142C64.7017 216.185 66.4915 218.205 69.1506 218.205ZM69.1506 216.849C67.1307 216.849 66.2102 215.111 66.2102 213.142C66.2102 211.173 67.1307 209.409 69.1506 209.409C71.1705 209.409 72.0909 211.173 72.0909 213.142C72.0909 215.111 71.1705 216.849 69.1506 216.849ZM77.4107 212.094C77.4107 210.381 78.4718 209.409 79.9164 209.409C81.3162 209.409 82.1664 210.323 82.1664 211.864V218H83.6749V211.761C83.6749 209.256 82.339 208.054 80.351 208.054C78.8681 208.054 77.9476 208.719 77.4874 209.716H77.3596V208.182H75.9022V218H77.4107V212.094ZM90.7013 208.182H88.6048V205.83H87.0962V208.182H85.6133V209.46H87.0962V215.597C87.0962 217.31 88.4769 218.128 89.7553 218.128C90.3178 218.128 90.6758 218.026 90.8803 217.949L90.5735 216.594C90.4457 216.619 90.2411 216.67 89.9087 216.67C89.244 216.67 88.6048 216.466 88.6048 215.188V209.46H90.7013V208.182ZM92.9705 218H94.479V211.787C94.479 210.457 95.5273 209.486 96.9592 209.486C97.3619 209.486 97.7773 209.562 97.8796 209.588V208.054C97.707 208.041 97.3107 208.028 97.087 208.028C95.9109 208.028 94.8881 208.693 94.5302 209.665H94.4279V208.182H92.9705V218ZM103.358 218.205C106.017 218.205 107.806 216.185 107.806 213.142C107.806 210.074 106.017 208.054 103.358 208.054C100.699 208.054 98.9087 210.074 98.9087 213.142C98.9087 216.185 100.699 218.205 103.358 218.205ZM103.358 216.849C101.338 216.849 100.417 215.111 100.417 213.142C100.417 211.173 101.338 209.409 103.358 209.409C105.377 209.409 106.298 211.173 106.298 213.142C106.298 215.111 105.377 216.849 103.358 216.849ZM111.618 204.909H110.109V218H111.618V204.909Z" fill="#7AE7FF"/>
<rect x="20" y="350" width="100" height="100" rx="3" fill="#212121"/>
<path opacity="0.2" d="M35.0966 372.352H36.9545L36.9375 364.716L46.8239 374.619L48.1534 373.29L38.267 363.386H45.9034L45.8864 361.545H35.0966V372.352Z" fill="#EF0182"/>
<path opacity="0.2" d="M57.6561 438H59.1646V431.864C59.1646 430.425 60.2129 429.409 61.389 429.409C62.5332 429.409 63.3322 430.157 63.3322 431.276V438H64.8663V431.608C64.8663 430.342 65.6589 429.409 67.0396 429.409C68.1135 429.409 69.0339 429.978 69.0339 431.429V438H70.5424V431.429C70.5424 429.121 69.3024 428.054 67.551 428.054C66.1447 428.054 65.1156 428.7 64.6106 429.716H64.5083C64.0226 428.668 63.166 428.054 61.8748 428.054C60.5964 428.054 59.6504 428.668 59.2413 429.716H59.1135V428.182H57.6561V438ZM77.2892 438.205C79.9483 438.205 81.7381 436.185 81.7381 433.142C81.7381 430.074 79.9483 428.054 77.2892 428.054C74.6301 428.054 72.8404 430.074 72.8404 433.142C72.8404 436.185 74.6301 438.205 77.2892 438.205ZM77.2892 436.849C75.2694 436.849 74.3489 435.111 74.3489 433.142C74.3489 431.173 75.2694 429.409 77.2892 429.409C79.3091 429.409 80.2296 431.173 80.2296 433.142C80.2296 435.111 79.3091 436.849 77.2892 436.849ZM90.2283 433.986C90.2283 435.827 88.8221 436.67 87.6971 436.67C86.4442 436.67 85.5494 435.75 85.5494 434.318V428.182H84.0408V434.42C84.0408 436.926 85.3704 438.128 87.2113 438.128C88.6942 438.128 89.6658 437.335 90.1261 436.338H90.2283V438H91.7369V428.182H90.2283V433.986ZM101.454 430.381C100.981 428.987 99.9203 428.054 97.9771 428.054C95.9061 428.054 94.372 429.23 94.372 430.892C94.372 432.247 95.1774 433.155 96.9799 433.577L98.6163 433.96C99.6071 434.19 100.074 434.663 100.074 435.341C100.074 436.185 99.1788 436.875 97.7726 436.875C96.5389 436.875 95.7654 436.344 95.497 435.29L94.0652 435.648C94.4167 437.316 95.791 438.205 97.7981 438.205C100.08 438.205 101.633 436.958 101.633 435.264C101.633 433.896 100.777 433.033 99.0254 432.605L97.568 432.247C96.4047 431.96 95.8805 431.57 95.8805 430.815C95.8805 429.972 96.7754 429.358 97.9771 429.358C99.2939 429.358 99.8372 430.087 100.099 430.764L101.454 430.381ZM108.021 438.205C110.015 438.205 111.472 437.207 111.933 435.724L110.475 435.315C110.092 436.338 109.203 436.849 108.021 436.849C106.25 436.849 105.029 435.705 104.959 433.602H112.086V432.963C112.086 429.307 109.913 428.054 107.867 428.054C105.208 428.054 103.444 430.151 103.444 433.168C103.444 436.185 105.183 438.205 108.021 438.205ZM104.959 432.298C105.061 430.771 106.141 429.409 107.867 429.409C109.504 429.409 110.552 430.636 110.552 432.298H104.959Z" fill="#7AE7FF"/>
<path opacity="0.5" d="M46.8239 422.926L36.9375 432.83L36.9545 425.193H35.0966V436H45.8864L45.9034 434.159H38.267L48.1534 424.256L46.8239 422.926Z" fill="white"/>
<g opacity="0.2">
<path d="M89 364C89 361.239 91.2386 359 94 359H106C108.761 359 111 361.239 111 364V375C111 381.075 106.075 386 100 386V386C93.9249 386 89 381.075 89 375V364Z" stroke="#7AE7FF" stroke-width="2"/>
<path d="M89 364C89 361.239 91.2386 359 94 359H100V370H89V364Z" stroke="#7AE7FF" stroke-width="2"/>
<path d="M111 364C111 361.239 108.761 359 106 359H100V370H111V364Z" stroke="#7AE7FF" stroke-width="2"/>
</g>
<g opacity="0.2">
<path d="M1243.32 35.875H1239V41.125H1243.32L1248 46V31L1243.32 35.875Z" stroke="#EF0182" stroke-width="1.5" stroke-linejoin="round"/>
<path d="M1256 30C1261 34 1261 44 1256 49" stroke="#EF0182" stroke-width="1.5" stroke-linejoin="round"/>
<path d="M1253 32C1256.84 35.4286 1257.16 42.2857 1253 46" stroke="#EF0182" stroke-width="1.5" stroke-linejoin="round"/>
<path d="M1251 35C1253.56 36.9592 1253.77 40.8776 1251 43" stroke="#EF0182" stroke-width="1.5" stroke-linejoin="round"/>
</g>
<g opacity="0.2">
<path d="M1133.32 35.875H1129V41.125H1133.32L1138 46V31L1133.32 35.875Z" stroke="#EF0182" stroke-width="1.5" stroke-linejoin="round"/>
<path d="M1141 35C1143.56 36.9592 1143.77 40.8776 1141 43" stroke="#EF0182" stroke-width="1.5" stroke-linejoin="round"/>
</g>
<g opacity="0.2">
<path d="M1023.32 35.875H1019V41.125H1023.32L1028 46V31L1023.32 35.875Z" stroke="#EF0182" stroke-width="1.5" stroke-linejoin="round"/>
</g>
<g opacity="0.2">
<path d="M918 45V33L927 39L918 45Z" stroke="#EF0182" stroke-width="1.5" stroke-linejoin="round"/>
<path d="M909 45V33L918 39L909 45Z" stroke="#EF0182" stroke-width="1.5" stroke-linejoin="round"/>
</g>
<g opacity="0.2">
<path d="M698 45V33L689 39L698 45Z" stroke="#EF0182" stroke-width="1.5" stroke-linejoin="round"/>
<path d="M707 45V33L698 39L707 45Z" stroke="#EF0182" stroke-width="1.5" stroke-linejoin="round"/>
</g>
<g opacity="0.2">
<path d="M799 45V33L808 39L799 45Z" stroke="#EF0182" stroke-width="1.5" stroke-linejoin="round"/>
<line x1="811.75" y1="32.75" x2="811.75" y2="45.25" stroke="#EF0182" stroke-width="1.5" stroke-linecap="round"/>
<line x1="815.75" y1="32.75" x2="815.75" y2="45.25" stroke="#EF0182" stroke-width="1.5" stroke-linecap="round"/>
</g>
<defs>
<linearGradient id="paint0_linear_16_1038" x1="840" y1="204" x2="840" y2="210" gradientUnits="userSpaceOnUse">
<stop stop-color="white" stop-opacity="0.2"/>
<stop offset="0.645833" stop-color="white" stop-opacity="0"/>
<stop offset="0.645933" stop-opacity="0"/>
<stop offset="1"/>
</linearGradient>
<linearGradient id="paint1_linear_16_1038" x1="510" y1="204" x2="510" y2="210" gradientUnits="userSpaceOnUse">
<stop stop-color="white" stop-opacity="0.2"/>
<stop offset="0.645833" stop-color="white" stop-opacity="0"/>
<stop offset="0.645933" stop-opacity="0"/>
<stop offset="1"/>
</linearGradient>
</defs>
</svg>
