<svg width="1350" height="470" viewBox="0 0 1350 470" fill="none" xmlns="http://www.w3.org/2000/svg">
<rect width="1350" height="470" rx="18" fill="#C4C4C4"/>
<rect x="790" y="130" width="100" height="100" rx="3" fill="url(#paint0_linear_16_673)"/>
<path d="M843.04 168.727V185.364C843.04 188.261 841.653 189.818 839.222 189.818C837.006 189.818 835.403 188.523 835.403 186.545H832.631C832.631 190.125 835.403 192.318 839.222 192.318C843.267 192.318 845.858 189.83 845.858 185.364V168.727H843.04Z" fill="white"/>
<path d="M874.364 142H872.646V154.844L867.692 149.891L866.505 151.094L873.505 158.094L880.521 151.094L879.302 149.891L874.364 154.844V142Z" fill="#EF9E00"/>
<path d="M867.724 213.719H875.255V217H877.099V213.719H879.286V212H877.099V201H874.755L867.724 212.125V213.719ZM875.255 212H869.817V211.875L875.13 203.469H875.255V212Z" fill="#5CF300"/>
<rect x="826" y="204" width="28" height="6" rx="3" fill="url(#paint1_linear_16_673)"/>
<rect x="460" y="130" width="100" height="100" rx="3" fill="url(#paint2_linear_16_673)"/>
<path d="M503.928 192H506.746V181.591H516.837V179.091H506.746V171.227H517.882V168.727H503.928V192Z" fill="white"/>
<path d="M539.765 141.25V142.781C541.577 142.781 542.14 143.609 542.14 145.437V148.562C542.14 149.836 542.538 150.781 544.327 151.133V151.367C542.538 151.719 542.14 152.664 542.14 153.937V157.062C542.14 158.891 541.577 159.719 539.765 159.719V161.25C542.827 161.25 543.827 159.938 543.827 157.062V154.562C543.827 152.852 544.429 152.187 546.171 152.187V150.312C544.429 150.312 543.827 149.648 543.827 147.937V145.437C543.827 142.562 542.827 141.25 539.765 141.25Z" fill="#EF9E00"/>
<rect x="496" y="204" width="28" height="6" rx="3" fill="url(#paint3_linear_16_673)"/>
<rect x="350" y="350" width="100" height="100" rx="3" fill="url(#paint4_linear_16_673)"/>
<path d="M428.536 378.359C430.411 378.359 431.935 376.836 431.942 374.969V373.156H435.083V374.969C435.075 376.836 436.599 378.359 438.474 378.359C440.341 378.359 441.864 376.836 441.864 374.969C441.864 373.094 440.341 371.57 438.474 371.562H436.677V368.422H438.474C440.341 368.43 441.864 366.906 441.864 365.031C441.864 363.164 440.341 361.641 438.474 361.641C436.599 361.641 435.075 363.164 435.083 365.031V366.828H431.942V365.031C431.935 363.164 430.411 361.641 428.536 361.641C426.669 361.641 425.146 363.164 425.146 365.031C425.146 366.906 426.669 368.43 428.536 368.422H430.349V371.562H428.536C426.669 371.57 425.146 373.094 425.146 374.969C425.146 376.836 426.669 378.359 428.536 378.359ZM428.536 376.766C427.544 376.766 426.739 375.961 426.739 374.969C426.739 373.969 427.544 373.164 428.536 373.156H430.349V374.969C430.341 375.961 429.536 376.766 428.536 376.766ZM428.536 366.828C427.544 366.836 426.739 366.031 426.739 365.031C426.739 364.039 427.544 363.234 428.536 363.234C429.536 363.234 430.341 364.039 430.349 365.031V366.828H428.536ZM438.474 376.766C437.474 376.766 436.669 375.961 436.677 374.969V373.156H438.474C439.466 373.164 440.271 373.969 440.271 374.969C440.271 375.961 439.466 376.766 438.474 376.766ZM436.677 366.828V365.031C436.669 364.039 437.474 363.234 438.474 363.234C439.466 363.234 440.271 364.039 440.271 365.031C440.271 366.031 439.466 366.836 438.474 366.828H436.677ZM431.942 371.562V368.422H435.083V371.562H431.942Z" fill="#7AE7FF"/>
<path d="M410.49 438.205C412.664 438.205 414.096 436.875 414.351 435.136H412.843C412.561 436.21 411.667 436.849 410.49 436.849C408.701 436.849 407.55 435.366 407.55 433.091C407.55 430.866 408.726 429.409 410.49 429.409C411.82 429.409 412.613 430.227 412.843 431.122H414.351C414.096 429.281 412.536 428.054 410.465 428.054C407.806 428.054 406.042 430.151 406.042 433.142C406.042 436.082 407.729 438.205 410.49 438.205ZM416.556 438H418.065V431.864C418.065 430.425 419.113 429.409 420.289 429.409C421.434 429.409 422.233 430.157 422.233 431.276V438H423.767V431.608C423.767 430.342 424.559 429.409 425.94 429.409C427.014 429.409 427.934 429.978 427.934 431.429V438H429.443V431.429C429.443 429.121 428.203 428.054 426.451 428.054C425.045 428.054 424.016 428.7 423.511 429.716H423.409C422.923 428.668 422.066 428.054 420.775 428.054C419.497 428.054 418.551 428.668 418.142 429.716H418.014V428.182H416.556V438ZM435.908 438.205C437.8 438.205 438.44 437.028 438.772 436.491H438.951V438H440.408V424.909H438.9V429.741H438.772C438.44 429.23 437.852 428.054 435.934 428.054C433.454 428.054 431.741 430.023 431.741 433.116C431.741 436.236 433.454 438.205 435.908 438.205ZM436.113 436.849C434.221 436.849 433.249 435.188 433.249 433.091C433.249 431.02 434.195 429.409 436.113 429.409C437.954 429.409 438.925 430.892 438.925 433.091C438.925 435.315 437.928 436.849 436.113 436.849Z" fill="#7AE7FF"/>
<rect x="240" y="350" width="100" height="100" rx="3" fill="url(#paint5_linear_16_673)"/>
<path d="M314.253 363.719H319.378L326.597 378H332.753V376.281H327.628L320.409 362H314.253V363.719ZM325.269 362V363.719H332.753V362H325.269Z" fill="#7AE7FF"/>
<path d="M283.58 438.205C286.239 438.205 288.029 436.185 288.029 433.142C288.029 430.074 286.239 428.054 283.58 428.054C280.921 428.054 279.131 430.074 279.131 433.142C279.131 436.185 280.921 438.205 283.58 438.205ZM283.58 436.849C281.56 436.849 280.64 435.111 280.64 433.142C280.64 431.173 281.56 429.409 283.58 429.409C285.6 429.409 286.521 431.173 286.521 433.142C286.521 435.111 285.6 436.849 283.58 436.849ZM290.332 441.682H291.84V436.491H291.968C292.301 437.028 292.94 438.205 294.832 438.205C297.286 438.205 298.999 436.236 298.999 433.116C298.999 430.023 297.286 428.054 294.806 428.054C292.889 428.054 292.301 429.23 291.968 429.741H291.789V428.182H290.332V441.682ZM291.815 433.091C291.815 430.892 292.786 429.409 294.627 429.409C296.545 429.409 297.491 431.02 297.491 433.091C297.491 435.188 296.519 436.849 294.627 436.849C292.812 436.849 291.815 435.315 291.815 433.091ZM305.57 428.182H303.474V425.83H301.965V428.182H300.482V429.46H301.965V435.597C301.965 437.31 303.346 438.128 304.624 438.128C305.187 438.128 305.545 438.026 305.749 437.949L305.443 436.594C305.315 436.619 305.11 436.67 304.778 436.67C304.113 436.67 303.474 436.466 303.474 435.188V429.46H305.57V428.182ZM307.84 438H309.348V428.182H307.84V438ZM308.607 426.545C309.195 426.545 309.681 426.085 309.681 425.523C309.681 424.96 309.195 424.5 308.607 424.5C308.019 424.5 307.533 424.96 307.533 425.523C307.533 426.085 308.019 426.545 308.607 426.545ZM316.1 438.205C318.759 438.205 320.549 436.185 320.549 433.142C320.549 430.074 318.759 428.054 316.1 428.054C313.441 428.054 311.651 430.074 311.651 433.142C311.651 436.185 313.441 438.205 316.1 438.205ZM316.1 436.849C314.08 436.849 313.159 435.111 313.159 433.142C313.159 431.173 314.08 429.409 316.1 429.409C318.12 429.409 319.04 431.173 319.04 433.142C319.04 435.111 318.12 436.849 316.1 436.849ZM324.36 432.094C324.36 430.381 325.421 429.409 326.866 429.409C328.265 429.409 329.116 430.323 329.116 431.864V438H330.624V431.761C330.624 429.256 329.288 428.054 327.3 428.054C325.817 428.054 324.897 428.719 324.437 429.716H324.309V428.182H322.851V438H324.36V432.094Z" fill="#7AE7FF"/>
<rect x="130" y="350" width="100" height="100" rx="3" fill="url(#paint6_linear_16_673)"/>
<path d="M207.776 369.437L212.995 364.234L218.214 369.437L219.401 368.25L212.995 361.844L206.589 368.25L207.776 369.437Z" fill="#7AE7FF"/>
<path d="M168.096 438.205C170.269 438.205 171.701 436.875 171.957 435.136H170.448C170.167 436.21 169.272 436.849 168.096 436.849C166.306 436.849 165.156 435.366 165.156 433.091C165.156 430.866 166.332 429.409 168.096 429.409C169.425 429.409 170.218 430.227 170.448 431.122H171.957C171.701 429.281 170.141 428.054 168.07 428.054C165.411 428.054 163.647 430.151 163.647 433.142C163.647 436.082 165.335 438.205 168.096 438.205ZM178.151 438.205C180.81 438.205 182.599 436.185 182.599 433.142C182.599 430.074 180.81 428.054 178.151 428.054C175.491 428.054 173.702 430.074 173.702 433.142C173.702 436.185 175.491 438.205 178.151 438.205ZM178.151 436.849C176.131 436.849 175.21 435.111 175.21 433.142C175.21 431.173 176.131 429.409 178.151 429.409C180.17 429.409 181.091 431.173 181.091 433.142C181.091 435.111 180.17 436.849 178.151 436.849ZM186.411 432.094C186.411 430.381 187.472 429.409 188.916 429.409C190.316 429.409 191.166 430.323 191.166 431.864V438H192.675V431.761C192.675 429.256 191.339 428.054 189.351 428.054C187.868 428.054 186.948 428.719 186.487 429.716H186.36V428.182H184.902V438H186.411V432.094ZM199.701 428.182H197.605V425.83H196.096V428.182H194.613V429.46H196.096V435.597C196.096 437.31 197.477 438.128 198.755 438.128C199.318 438.128 199.676 438.026 199.88 437.949L199.574 436.594C199.446 436.619 199.241 436.67 198.909 436.67C198.244 436.67 197.605 436.466 197.605 435.188V429.46H199.701V428.182ZM201.971 438H203.479V431.787C203.479 430.457 204.527 429.486 205.959 429.486C206.362 429.486 206.777 429.562 206.88 429.588V428.054C206.707 428.041 206.311 428.028 206.087 428.028C204.911 428.028 203.888 428.693 203.53 429.665H203.428V428.182H201.971V438ZM212.358 438.205C215.017 438.205 216.806 436.185 216.806 433.142C216.806 430.074 215.017 428.054 212.358 428.054C209.699 428.054 207.909 430.074 207.909 433.142C207.909 436.185 209.699 438.205 212.358 438.205ZM212.358 436.849C210.338 436.849 209.417 435.111 209.417 433.142C209.417 431.173 210.338 429.409 212.358 429.409C214.377 429.409 215.298 431.173 215.298 433.142C215.298 435.111 214.377 436.849 212.358 436.849ZM220.618 424.909H219.109V438H220.618V424.909Z" fill="#7AE7FF"/>
<rect x="20" y="240" width="100" height="100" rx="3" fill="url(#paint7_linear_16_673)"/>
<path d="M36.3352 320.381C35.8622 318.987 34.8011 318.054 32.858 318.054C30.7869 318.054 29.2528 319.23 29.2528 320.892C29.2528 322.247 30.0582 323.155 31.8608 323.577L33.4972 323.96C34.4879 324.19 34.9545 324.663 34.9545 325.341C34.9545 326.185 34.0597 326.875 32.6534 326.875C31.4197 326.875 30.6463 326.344 30.3778 325.29L28.946 325.648C29.2976 327.316 30.6719 328.205 32.679 328.205C34.9609 328.205 36.5142 326.958 36.5142 325.264C36.5142 323.896 35.6577 323.033 33.9062 322.605L32.4489 322.247C31.2855 321.96 30.7614 321.57 30.7614 320.815C30.7614 319.972 31.6562 319.358 32.858 319.358C34.1747 319.358 34.718 320.087 34.9801 320.764L36.3352 320.381ZM40.2935 322.094C40.2935 320.381 41.3865 319.409 42.8759 319.409C44.2949 319.409 45.1515 320.304 45.1515 321.864V328H46.66V321.761C46.66 319.237 45.3176 318.054 43.3105 318.054C41.7637 318.054 40.8816 318.7 40.4213 319.716H40.2935V314.909H38.785V328H40.2935V322.094ZM49.4197 328H50.9283V318.182H49.4197V328ZM50.1868 316.545C50.7749 316.545 51.2607 316.085 51.2607 315.523C51.2607 314.96 50.7749 314.5 50.1868 314.5C49.5987 314.5 49.1129 314.96 49.1129 315.523C49.1129 316.085 49.5987 316.545 50.1868 316.545ZM58.0634 318.182H55.8645V317.185C55.8645 316.213 56.2736 315.702 57.2708 315.702C57.7054 315.702 57.9611 315.804 58.1145 315.855L58.5492 314.551C58.3191 314.449 57.8588 314.295 57.1174 314.295C55.7111 314.295 54.356 315.139 54.356 316.827V318.182H52.7708V319.46H54.356V328H55.8645V319.46H58.0634V318.182ZM64.4474 318.182H62.3509V315.83H60.8423V318.182H59.3594V319.46H60.8423V325.597C60.8423 327.31 62.223 328.128 63.5014 328.128C64.0639 328.128 64.4219 328.026 64.6264 327.949L64.3196 326.594C64.1918 326.619 63.9872 326.67 63.6548 326.67C62.9901 326.67 62.3509 326.466 62.3509 325.188V319.46H64.4474V318.182Z" fill="#7AE7FF"/>
<rect x="1230" y="240" width="100" height="100" rx="3" fill="url(#paint8_linear_16_673)"/>
<path d="M1248.27 299H1250.29V290.716C1250.29 288.943 1251.68 287.648 1253.59 287.648C1254.13 287.648 1254.68 287.75 1254.82 287.784V285.739C1254.59 285.722 1254.06 285.705 1253.76 285.705C1252.19 285.705 1250.83 286.591 1250.35 287.886H1250.22V285.909H1248.27V299ZM1262.29 299.273C1264.95 299.273 1266.9 297.943 1267.51 295.966L1265.57 295.42C1265.06 296.784 1263.87 297.466 1262.29 297.466C1259.93 297.466 1258.31 295.94 1258.21 293.136H1267.71V292.284C1267.71 287.409 1264.82 285.739 1262.09 285.739C1258.54 285.739 1256.19 288.534 1256.19 292.557C1256.19 296.58 1258.51 299.273 1262.29 299.273ZM1258.21 291.398C1258.35 289.361 1259.79 287.545 1262.09 287.545C1264.27 287.545 1265.67 289.182 1265.67 291.398H1258.21ZM1276.47 285.909H1273.67V282.773H1271.66V285.909H1269.68V287.614H1271.66V295.795C1271.66 298.08 1273.5 299.17 1275.21 299.17C1275.96 299.17 1276.43 299.034 1276.71 298.932L1276.3 297.125C1276.13 297.159 1275.85 297.227 1275.41 297.227C1274.52 297.227 1273.67 296.955 1273.67 295.25V287.614H1276.47V285.909ZM1287.74 293.648C1287.74 296.102 1285.87 297.227 1284.37 297.227C1282.7 297.227 1281.5 296 1281.5 294.091V285.909H1279.49V294.227C1279.49 297.568 1281.27 299.17 1283.72 299.17C1285.7 299.17 1286.99 298.114 1287.61 296.784H1287.74V299H1289.75V285.909H1287.74V293.648ZM1293.44 299H1295.45V290.716C1295.45 288.943 1296.85 287.648 1298.76 287.648C1299.29 287.648 1299.85 287.75 1299.98 287.784V285.739C1299.75 285.722 1299.23 285.705 1298.93 285.705C1297.36 285.705 1296 286.591 1295.52 287.886H1295.38V285.909H1293.44V299ZM1304.38 291.125C1304.38 288.841 1305.79 287.545 1307.72 287.545C1309.59 287.545 1310.72 288.764 1310.72 290.818V299H1312.73V290.682C1312.73 287.341 1310.95 285.739 1308.3 285.739C1306.32 285.739 1305.1 286.625 1304.48 287.955H1304.31V285.909H1302.37V299H1304.38V291.125Z" fill="white"/>
<path d="M1293 320.381C1292.53 318.987 1291.47 318.054 1289.52 318.054C1287.45 318.054 1285.92 319.23 1285.92 320.892C1285.92 322.247 1286.72 323.155 1288.52 323.577L1290.16 323.96C1291.15 324.19 1291.62 324.663 1291.62 325.341C1291.62 326.185 1290.72 326.875 1289.32 326.875C1288.08 326.875 1287.31 326.344 1287.04 325.29L1285.61 325.648C1285.96 327.316 1287.34 328.205 1289.34 328.205C1291.62 328.205 1293.18 326.958 1293.18 325.264C1293.18 323.896 1292.32 323.033 1290.57 322.605L1289.11 322.247C1287.95 321.96 1287.43 321.57 1287.43 320.815C1287.43 319.972 1288.32 319.358 1289.52 319.358C1290.84 319.358 1291.38 320.087 1291.64 320.764L1293 320.381ZM1296.96 322.094C1296.96 320.381 1298.05 319.409 1299.54 319.409C1300.96 319.409 1301.82 320.304 1301.82 321.864V328H1303.32V321.761C1303.32 319.237 1301.98 318.054 1299.97 318.054C1298.43 318.054 1297.55 318.7 1297.09 319.716H1296.96V314.909H1295.45V328H1296.96V322.094ZM1306.08 328H1307.59V318.182H1306.08V328ZM1306.85 316.545C1307.44 316.545 1307.92 316.085 1307.92 315.523C1307.92 314.96 1307.44 314.5 1306.85 314.5C1306.26 314.5 1305.78 314.96 1305.78 315.523C1305.78 316.085 1306.26 316.545 1306.85 316.545ZM1314.73 318.182H1312.53V317.185C1312.53 316.213 1312.94 315.702 1313.93 315.702C1314.37 315.702 1314.63 315.804 1314.78 315.855L1315.21 314.551C1314.98 314.449 1314.52 314.295 1313.78 314.295C1312.38 314.295 1311.02 315.139 1311.02 316.827V318.182H1309.43V319.46H1311.02V328H1312.53V319.46H1314.73V318.182ZM1321.11 318.182H1319.01V315.83H1317.51V318.182H1316.02V319.46H1317.51V325.597C1317.51 327.31 1318.89 328.128 1320.17 328.128C1320.73 328.128 1321.09 328.026 1321.29 327.949L1320.98 326.594C1320.86 326.619 1320.65 326.67 1320.32 326.67C1319.65 326.67 1319.01 326.466 1319.01 325.188V319.46H1321.11V318.182Z" fill="#7AE7FF"/>
<rect x="1230" y="350" width="100" height="100" rx="3" fill="url(#paint9_linear_16_673)"/>
<path d="M1282.44 412L1292.62 401.818L1282.44 391.636L1280.69 393.386L1287.89 400.568H1269.23V403.068H1287.89L1280.69 410.273L1282.44 412Z" fill="white"/>
<rect x="790" y="240" width="100" height="100" rx="3" fill="url(#paint10_linear_16_673)"/>
<path d="M829.084 278.727V302H831.72V284.318H831.947L839.22 302H841.766L849.038 284.318H849.266V302H851.902V278.727H848.538L840.629 298.045H840.357L832.447 278.727H829.084Z" fill="white"/>
<path d="M875.668 311H873.73L869.73 313.656V315.625L873.637 313.031H873.73V327H875.668V311Z" fill="#5CF300"/>
<rect x="790" y="20" width="100" height="100" rx="3" fill="url(#paint11_linear_16_673)"/>
<path d="M846.232 58.7273V73.9091C846.232 77.3182 843.891 79.7727 840.004 79.7727C836.118 79.7727 833.777 77.3182 833.777 73.9091V58.7273H830.959V74.1364C830.959 78.9091 834.527 82.4091 840.004 82.4091C845.482 82.4091 849.05 78.9091 849.05 74.1364V58.7273H846.232Z" fill="white"/>
<path d="M872.683 48.2187C874.151 48.2187 875.792 47.7031 876.831 46.6406L877.964 48H880.183L877.972 45.3047C878.573 44.5313 879.245 43.2344 879.245 41H877.464C877.464 42.0938 877.214 43.0625 876.8 43.8672L873.323 39.625L874.495 38.75C875.808 37.7812 876.62 36.7187 876.62 35.1875C876.62 33.4062 875.151 31.8438 872.745 31.8438C870.401 31.8438 868.87 33.3125 868.87 35.4687C868.87 36.8906 869.644 37.9844 870.745 39.3125C868.878 40.6094 867.589 41.8125 867.589 43.75C867.589 46.3437 869.526 48.2187 872.683 48.2187ZM875.729 45.3047C874.847 46.1328 873.729 46.5938 872.62 46.5938C870.714 46.5938 869.464 45.25 869.464 43.75C869.464 43.3125 869.87 42.1875 871.308 41.125L871.901 40.6875L875.729 45.3047ZM872.19 38.25C871.409 37.2969 870.745 36.3906 870.745 35.5C870.745 34.5 871.589 33.4375 872.808 33.4375C873.964 33.4375 874.745 34.375 874.745 35.1875C874.745 36.2812 874.151 36.875 873.245 37.4687L872.19 38.25Z" fill="#EF9E00"/>
<path d="M869.372 107H871.403L878.528 92.8125V91H868.278V92.7187H876.528V92.8437L869.372 107Z" fill="#5CF300"/>
<path opacity="0.5" d="M799.585 108H801.17V102.145H806.847V100.739H801.17V96.3153H807.435V94.9091H799.585V108ZM814.113 108.179C816.727 108.179 818.549 106.651 818.562 104.523C818.549 102.867 817.443 101.461 816.03 101.199V101.122C817.258 100.803 818.063 99.6009 818.076 98.2074C818.063 96.2131 816.388 94.7301 814.113 94.7301C811.812 94.7301 810.137 96.2131 810.15 98.2074C810.137 99.6009 810.942 100.803 812.195 101.122V101.199C810.757 101.461 809.651 102.867 809.664 104.523C809.651 106.651 811.473 108.179 814.113 108.179ZM814.113 106.773C812.317 106.773 811.211 105.852 811.224 104.446C811.211 102.969 812.432 101.915 814.113 101.915C815.768 101.915 816.989 102.969 817.002 104.446C816.989 105.852 815.883 106.773 814.113 106.773ZM814.113 100.56C812.681 100.56 811.671 99.6648 811.684 98.3097C811.671 96.9801 812.643 96.1108 814.113 96.1108C815.557 96.1108 816.529 96.9801 816.542 98.3097C816.529 99.6648 815.519 100.56 814.113 100.56Z" fill="white"/>
<rect x="350" y="130" width="100" height="100" rx="3" fill="url(#paint12_linear_16_673)"/>
<path d="M399 192C406.091 192 410.091 187.591 410.091 180.318C410.091 173.091 406.091 168.727 399.318 168.727H391.818V192H399ZM394.636 189.5V171.227H399.136C404.591 171.227 407.364 174.682 407.364 180.318C407.364 186 404.591 189.5 398.818 189.5H394.636Z" fill="white"/>
<path d="M436.233 161.25V159.719C434.421 159.719 433.858 158.891 433.858 157.062V153.937C433.858 152.664 433.46 151.719 431.671 151.367V151.133C433.46 150.781 433.858 149.836 433.858 148.562V145.437C433.858 143.609 434.421 142.781 436.233 142.781V141.25C433.171 141.25 432.171 142.562 432.171 145.437V147.937C432.171 149.648 431.569 150.312 429.827 150.312V152.187C431.569 152.187 432.171 152.852 432.171 154.562V157.062C432.171 159.938 433.171 161.25 436.233 161.25Z" fill="#EF9E00"/>
<rect x="350" y="240" width="100" height="100" rx="3" fill="url(#paint13_linear_16_673)"/>
<path d="M409.905 286C409.041 281.227 405.223 278.409 400.541 278.409C394.587 278.409 390.268 283 390.268 290.364C390.268 297.727 394.587 302.318 400.541 302.318C405.223 302.318 409.041 299.5 409.905 294.727H407.087C406.405 297.955 403.632 299.682 400.541 299.682C396.314 299.682 392.996 296.409 392.996 290.364C392.996 284.318 396.314 281.045 400.541 281.045C403.632 281.045 406.405 282.773 407.087 286H409.905Z" fill="white"/>
<path d="M431.608 271.25H436.233V269.719H433.358V252.781H436.233V251.25H431.608V271.25Z" fill="#EF9E00"/>
<rect x="350" y="20" width="100" height="100" rx="3" fill="url(#paint14_linear_16_673)"/>
<path d="M393.256 82H407.483V79.5H396.074V71.5909H406.574V69.0909H396.074V61.2273H407.301V58.7273H393.256V82Z" fill="white"/>
<path d="M433.717 48H435.279L436.006 43.5625H438.373L438.623 42H436.264L436.92 38H439.311L439.561 36.4375H437.178L437.904 32H436.342L435.615 36.4375H431.553L432.279 32H430.717L429.99 36.4375H427.623L427.373 38H429.732L429.076 42H426.686L426.436 43.5625H428.818L428.092 48H429.654L430.381 43.5625H434.443L433.717 48ZM430.639 42L431.295 38H435.357L434.701 42H430.639Z" fill="#EF9E00"/>
<path d="M433.559 107.219C436.66 107.219 438.965 105.273 438.965 102.656C438.965 100.625 437.762 99.1484 435.746 98.8125V98.6875C437.363 98.1953 438.371 96.8672 438.371 95.0625C438.371 92.7969 436.582 90.7812 433.621 90.7812C430.855 90.7812 428.559 92.4844 428.465 95H430.34C430.41 93.4062 431.926 92.4687 433.59 92.4687C435.355 92.4687 436.496 93.5391 436.496 95.1562C436.496 96.8437 435.176 97.9375 433.277 97.9375H431.996V99.6562H433.277C435.707 99.6562 437.059 100.891 437.059 102.656C437.059 104.352 435.582 105.5 433.527 105.5C431.676 105.5 430.207 104.547 430.09 103H428.121C428.238 105.516 430.457 107.219 433.559 107.219Z" fill="#5CF300"/>
<path opacity="0.5" d="M359.585 108H361.17V102.145H366.847V100.739H361.17V96.3153H367.435V94.9091H359.585V108ZM369.613 105.315H375.775V108H377.283V105.315H379.073V103.909H377.283V94.9091H375.366L369.613 104.011V105.315ZM375.775 103.909H371.326V103.807L375.672 96.929H375.775V103.909Z" fill="white"/>
<rect x="1010" y="350" width="100" height="100" rx="3" fill="url(#paint15_linear_16_673)"/>
<path d="M1058.58 412L1060.33 410.25L1053.12 403.068H1071.78V400.568H1053.12L1060.33 393.364L1058.58 391.636L1048.39 401.818L1058.58 412Z" fill="white"/>
<path d="M1093.5 437.125C1094.28 437.125 1094.91 436.492 1094.91 435.719C1094.91 434.945 1094.28 434.312 1093.5 434.312C1092.73 434.312 1092.1 434.945 1092.1 435.719C1092.1 436.492 1092.73 437.125 1093.5 437.125Z" fill="#5CF300"/>
<rect x="1010" y="130" width="100" height="100" rx="3" fill="url(#paint16_linear_16_673)"/>
<path d="M1053.82 192H1067.45V189.5H1056.64V168.727H1053.82V192Z" fill="white"/>
<path d="M1094.83 158L1101.83 151L1094.83 144L1093.63 145.203L1098.58 150.141H1085.75V151.859H1098.58L1093.63 156.812L1094.83 158Z" fill="#EF9E00"/>
<path d="M1093.1 217.219C1096.34 217.258 1098.45 214.82 1098.45 211.844C1098.45 208.75 1096.16 206.531 1093.42 206.531C1091.77 206.531 1090.35 207.336 1089.48 208.656H1089.35C1089.36 204.758 1090.88 202.5 1093.35 202.5C1095.04 202.5 1096.06 203.562 1096.42 205H1098.32C1097.93 202.516 1096.04 200.781 1093.35 200.781C1089.75 200.781 1087.54 203.969 1087.54 209.625C1087.54 215.539 1090.48 217.188 1093.1 217.219ZM1093.1 215.5C1091.1 215.5 1089.63 213.789 1089.64 211.875C1089.64 209.961 1091.18 208.25 1093.17 208.25C1095.13 208.25 1096.57 209.859 1096.57 211.844C1096.57 213.875 1095.07 215.5 1093.1 215.5Z" fill="#5CF300"/>
<rect x="1010" y="20" width="100" height="100" rx="3" fill="url(#paint17_linear_16_673)"/>
<path d="M1070.77 70.3636C1070.77 63 1066.45 58.4091 1060.49 58.4091C1054.54 58.4091 1050.22 63 1050.22 70.3636C1050.22 77.7273 1054.54 82.3182 1060.49 82.3182C1066.45 82.3182 1070.77 77.7273 1070.77 70.3636ZM1068.04 70.3636C1068.04 76.4091 1064.72 79.6818 1060.49 79.6818C1056.27 79.6818 1052.95 76.4091 1052.95 70.3636C1052.95 64.3182 1056.27 61.0455 1060.49 61.0455C1064.72 61.0455 1068.04 64.3182 1068.04 70.3636Z" fill="white"/>
<path d="M1091.36 41.25C1091.36 45.1875 1092.42 48.4688 1094.33 51.25H1095.95C1094.45 49.1875 1093.26 44.9687 1093.26 41.25C1093.26 37.5312 1094.45 33.3125 1095.95 31.25H1094.33C1092.42 34.0312 1091.36 37.3125 1091.36 41.25Z" fill="#EF9E00"/>
<path d="M1092.89 90.7812C1089.64 90.7422 1087.54 93.1875 1087.54 96.125C1087.54 99.2187 1089.82 101.438 1092.57 101.438C1094.23 101.438 1095.64 100.625 1096.51 99.3125H1096.64C1096.64 103.25 1095.1 105.5 1092.64 105.5C1090.95 105.5 1089.92 104.437 1089.57 102.969H1087.67C1088.04 105.5 1089.95 107.219 1092.64 107.219C1096.23 107.219 1098.45 104.031 1098.45 98.3438C1098.45 92.4687 1095.51 90.8125 1092.89 90.7812ZM1092.89 92.5C1094.89 92.5 1096.35 94.2187 1096.35 96.0937C1096.35 98 1094.79 99.7188 1092.82 99.7188C1090.85 99.7188 1089.42 98.125 1089.42 96.125C1089.42 94.125 1090.92 92.5 1092.89 92.5Z" fill="#5CF300"/>
<path opacity="0.5" d="M1019.59 108H1021.17V102.145H1026.85V100.739H1021.17V96.3153H1027.43V94.9091H1019.59V108ZM1034.52 94.9091H1032.94L1029.66 97.0824V98.6932L1032.86 96.571H1032.94V108H1034.52V94.9091ZM1042.56 108.179C1045.45 108.179 1047.11 105.731 1047.11 101.455C1047.11 97.2102 1045.42 94.7301 1042.56 94.7301C1039.69 94.7301 1038.01 97.2102 1038.01 101.455C1038.01 105.731 1039.67 108.179 1042.56 108.179ZM1042.56 106.773C1040.65 106.773 1039.54 104.862 1039.54 101.455C1039.54 98.054 1040.66 96.1108 1042.56 96.1108C1044.45 96.1108 1045.57 98.054 1045.57 101.455C1045.57 104.862 1044.46 106.773 1042.56 106.773Z" fill="white"/>
<rect x="570" y="350" width="210" height="100" rx="3" fill="url(#paint18_linear_16_673)"/>
<rect x="570" y="130" width="100" height="100" rx="3" fill="url(#paint19_linear_16_673)"/>
<path d="M626.837 176H629.746C628.882 171.5 625.109 168.409 620.2 168.409C614.234 168.409 610.018 173 610.018 180.364C610.018 187.727 614.2 192.318 620.382 192.318C625.928 192.318 629.882 188.625 629.882 182.864V180.364H621.018V182.864H627.155C627.075 187.045 624.325 189.682 620.382 189.682C616.064 189.682 612.746 186.409 612.746 180.364C612.746 174.318 616.064 171.045 620.2 171.045C623.564 171.045 625.848 172.943 626.837 176Z" fill="white"/>
<path d="M653.776 136.844H652.214V163.156H653.776V136.844Z" fill="#EF9E00"/>
<rect x="570" y="240" width="100" height="100" rx="3" fill="url(#paint20_linear_16_673)"/>
<path d="M612.912 302H621.321C626.821 302 629.094 299.318 629.094 295.818C629.094 292.136 626.548 290.136 624.412 290V289.773C626.412 289.227 628.185 287.909 628.185 284.909C628.185 281.5 625.912 278.727 621.048 278.727H612.912V302ZM615.73 299.5V291.409H621.457C624.503 291.409 626.412 293.455 626.412 295.818C626.412 297.864 625.003 299.5 621.321 299.5H615.73ZM615.73 288.955V281.227H621.048C624.139 281.227 625.503 282.864 625.503 284.909C625.503 287.364 623.503 288.955 620.957 288.955H615.73Z" fill="white"/>
<path d="M649.579 251.25L654.735 270.406H656.423L651.267 251.25H649.579Z" fill="#EF9E00"/>
<rect x="570" y="20" width="100" height="100" rx="3" fill="url(#paint21_linear_16_673)"/>
<path d="M611.78 61.2273H619.098V82H621.916V61.2273H629.234V58.7273H611.78V61.2273Z" fill="white"/>
<path d="M653.875 45C653.875 46.75 654.969 48.2187 657 48.2187C659 48.2187 660.094 46.75 660.094 45V44.1562C660.094 42.4062 659.031 40.9375 657 40.9375C655 40.9375 653.875 42.4062 653.875 44.1562V45ZM645.906 35.8438C645.906 37.5937 647 39.0625 649.031 39.0625C651.031 39.0625 652.125 37.5937 652.125 35.8438V35C652.125 33.25 651.062 31.7812 649.031 31.7812C647.031 31.7812 645.906 33.25 645.906 35V35.8438ZM646.5 48H648.281L659.281 32H657.5L646.5 48ZM655.469 44.1562C655.469 43.1875 655.906 42.2812 657 42.2812C658.125 42.2812 658.5 43.1875 658.5 44.1562V45C658.5 45.9687 658.094 46.875 657 46.875C655.875 46.875 655.469 45.9687 655.469 45V44.1562ZM647.5 35C647.5 34.0312 647.938 33.125 649.031 33.125C650.156 33.125 650.531 34.0312 650.531 35V35.8438C650.531 36.8125 650.125 37.7187 649.031 37.7187C647.906 37.7187 647.5 36.8125 647.5 35.8438V35Z" fill="#EF9E00"/>
<path d="M652.964 107.219C656.011 107.219 658.245 104.969 658.245 101.906C658.245 98.8047 656.089 96.5312 653.151 96.5312C652.073 96.5312 651.026 96.9141 650.37 97.4375H650.276L650.839 92.7187H657.526V91H649.214L648.245 98.875L650.058 99.0938C650.722 98.6172 651.854 98.2734 652.839 98.2812C654.878 98.2969 656.37 99.8437 656.37 101.937C656.37 103.992 654.933 105.5 652.964 105.5C651.323 105.5 650.019 104.445 649.87 103H647.995C648.112 105.438 650.214 107.219 652.964 107.219Z" fill="#5CF300"/>
<path opacity="0.5" d="M579.585 108H581.17V102.145H586.847V100.739H581.17V96.3153H587.435V94.9091H579.585V108ZM594.266 108.179C596.912 108.211 598.638 106.217 598.638 103.781C598.638 101.25 596.765 99.4347 594.522 99.4347C593.173 99.4347 592.016 100.093 591.3 101.173H591.198C591.204 97.9837 592.444 96.1364 594.471 96.1364C595.851 96.1364 596.682 97.0057 596.976 98.1818H598.536C598.216 96.1491 596.67 94.7301 594.471 94.7301C591.524 94.7301 589.715 97.3381 589.715 101.966C589.715 106.805 592.118 108.153 594.266 108.179ZM594.266 106.773C592.623 106.773 591.422 105.373 591.428 103.807C591.434 102.241 592.694 100.841 594.317 100.841C595.922 100.841 597.104 102.158 597.104 103.781C597.104 105.443 595.871 106.773 594.266 106.773Z" fill="white"/>
<rect x="130" y="130" width="100" height="100" rx="3" fill="url(#paint22_linear_16_673)"/>
<path d="M172.96 192L175.301 185.409H184.71L187.051 192H190.006L181.46 168.727H178.551L170.006 192H172.96ZM176.188 182.909L179.915 172.409H180.097L183.824 182.909H176.188Z" fill="white"/>
<path d="M211.358 151.25C211.358 155.188 212.421 158.469 214.327 161.25H215.952C214.452 159.188 213.265 154.969 213.265 151.25C213.265 147.531 214.452 143.312 215.952 141.25H214.327C212.421 144.031 211.358 147.312 211.358 151.25Z" fill="#EF9E00"/>
<rect x="130" y="240" width="100" height="100" rx="3" fill="url(#paint23_linear_16_673)"/>
<path d="M172.045 302H188.091V299.5H175.409L187.955 280.773V278.727H171.909V281.227H184.591L172.045 299.955V302Z" fill="white"/>
<path d="M208.468 262.375L218.53 267.5V265.5L210.874 261.812V261.688L218.53 258V256L208.468 261.125V262.375Z" fill="#EF9E00"/>
<rect x="130" y="20" width="100" height="100" rx="3" fill="url(#paint24_linear_16_673)"/>
<path d="M190.767 70.3636C190.767 63 186.449 58.4091 180.494 58.4091C174.54 58.4091 170.222 63 170.222 70.3636C170.222 77.7273 174.54 82.3182 180.494 82.3182C182.017 82.3182 183.426 82.0227 184.688 81.4545L186.722 84.1818H189.812L186.778 80.1477C189.256 78.1136 190.767 74.7273 190.767 70.3636ZM179.585 74.7273L183.04 79.25C182.244 79.5341 181.392 79.6818 180.494 79.6818C176.267 79.6818 172.949 76.4091 172.949 70.3636C172.949 64.3182 176.267 61.0455 180.494 61.0455C184.722 61.0455 188.04 64.3182 188.04 70.3636C188.04 73.875 186.926 76.4432 185.153 77.9886L182.676 74.7273H179.585Z" fill="white"/>
<path d="M147.614 40.3438C149.205 40.3438 150.503 39.0462 150.503 37.4545C150.503 35.8629 149.205 34.5653 147.614 34.5653C146.022 34.5653 144.724 35.8629 144.724 37.4545C144.724 39.0462 146.022 40.3438 147.614 40.3438ZM142.347 43.5909L145.108 40.8295L144.239 39.9602L141.477 42.7216L142.347 43.5909ZM152.881 43.5909L153.75 42.7216L150.989 39.9602L150.119 40.8295L152.881 43.5909ZM144.239 34.9489L145.108 34.0795L142.347 31.3182L141.477 32.1875L144.239 34.9489ZM150.989 34.9489L153.75 32.1875L152.881 31.3182L150.119 34.0795L150.989 34.9489ZM147 45.5085H148.227V41.6222H147V45.5085ZM139.56 38.0682H143.446V36.8409H139.56V38.0682ZM151.781 38.0682H155.668V36.8409H151.781V38.0682ZM147 33.2869H148.227V29.4006H147V33.2869Z" fill="#FF299D"/>
<path d="M214.563 32H212.438L212.595 43.5H214.407L214.563 32ZM213.501 48.125C214.274 48.125 214.907 47.4922 214.907 46.7187C214.907 45.9453 214.274 45.3125 213.501 45.3125C212.728 45.3125 212.095 45.9453 212.095 46.7187C212.095 47.4922 212.728 48.125 213.501 48.125Z" fill="#EF9E00"/>
<path d="M215.668 91H213.73L209.73 93.6562V95.625L213.637 93.0312H213.73V107H215.668V91Z" fill="#5CF300"/>
<path opacity="0.5" d="M139.585 108H141.17V102.145H146.847V100.739H141.17V96.3153H147.435V94.9091H139.585V108ZM149.92 108H158.178V106.594H152.093V106.491L155.033 103.347C157.283 100.937 157.948 99.8118 157.948 98.3608C157.948 96.3409 156.312 94.7301 154.01 94.7301C151.716 94.7301 149.971 96.2898 149.971 98.5909H151.479C151.479 97.1016 152.444 96.1108 153.959 96.1108C155.378 96.1108 156.465 96.9801 156.465 98.3608C156.465 99.5689 155.756 100.464 154.241 102.119L149.92 106.849V108Z" fill="white"/>
<rect x="1120" y="350" width="100" height="100" rx="3" fill="url(#paint25_linear_16_673)"/>
<path d="M1171.76 388.727H1169.26V407.409L1162.05 400.205L1160.33 401.955L1170.51 412.136L1180.71 401.955L1178.94 400.205L1171.76 407.409V388.727Z" fill="white"/>
<path d="M1198.69 433.906H1208.31V432.219H1198.69V433.906ZM1198.69 429.281H1208.31V427.594H1198.69V429.281Z" fill="#5CF300"/>
<rect x="1120" y="240" width="100" height="100" rx="3" fill="url(#paint26_linear_16_673)"/>
<path d="M1169.26 302H1171.76V283.318L1178.96 290.523L1180.69 288.773L1170.51 278.591L1160.3 288.773L1162.08 290.523L1169.26 283.318V302Z" fill="white"/>
<path d="M1202.62 325.906H1204.37V321.625H1208.66V319.875H1204.37V315.594H1202.62V319.875H1198.34V321.625H1202.62V325.906Z" fill="#5CF300"/>
<rect x="1120" y="20" width="100" height="100" rx="3" fill="url(#paint27_linear_16_673)"/>
<path d="M1163.16 82H1165.98V73.5H1171.07C1176.49 73.5 1178.93 70.2045 1178.93 66.0909C1178.93 61.9773 1176.49 58.7273 1171.03 58.7273H1163.16V82ZM1165.98 71V61.2273H1170.93C1174.72 61.2273 1176.16 63.2955 1176.16 66.0909C1176.16 68.8864 1174.72 71 1170.98 71H1165.98Z" fill="white"/>
<path d="M1204.64 41.25C1204.64 37.3125 1203.58 34.0312 1201.67 31.25H1200.05C1201.55 33.3125 1202.73 37.5312 1202.73 41.25C1202.73 44.9687 1201.55 49.1875 1200.05 51.25H1201.67C1203.58 48.4688 1204.64 45.1875 1204.64 41.25Z" fill="#EF9E00"/>
<path d="M1203 107.219C1206.53 107.219 1208.56 104.227 1208.56 99C1208.56 93.8125 1206.5 90.7812 1203 90.7812C1199.5 90.7812 1197.44 93.8125 1197.44 99C1197.44 104.227 1199.47 107.219 1203 107.219ZM1203 105.5C1200.67 105.5 1199.31 103.164 1199.31 99C1199.31 94.8438 1200.69 92.4687 1203 92.4687C1205.31 92.4687 1206.69 94.8438 1206.69 99C1206.69 103.164 1205.33 105.5 1203 105.5Z" fill="#5CF300"/>
<path opacity="0.5" d="M1129.59 108H1131.17V102.145H1136.85V100.739H1131.17V96.3153H1137.43V94.9091H1129.59V108ZM1144.52 94.9091H1142.94L1139.66 97.0824V98.6932L1142.86 96.571H1142.94V108H1144.52V94.9091ZM1152.89 94.9091H1151.3L1148.03 97.0824V98.6932L1151.23 96.571H1151.3V108H1152.89V94.9091Z" fill="white"/>
<rect x="1230" y="20" width="100" height="100" rx="3" fill="url(#paint28_linear_16_673)"/>
<path d="M1251.24 79.2727C1253.76 79.2727 1254.62 77.7045 1255.06 76.9886H1255.3V79H1257.24V61.5455H1255.23V67.9886H1255.06C1254.62 67.3068 1253.83 65.7386 1251.28 65.7386C1247.97 65.7386 1245.68 68.3636 1245.68 72.4886C1245.68 76.6477 1247.97 79.2727 1251.24 79.2727ZM1251.51 77.4659C1248.99 77.4659 1247.7 75.25 1247.7 72.4545C1247.7 69.6932 1248.96 67.5455 1251.51 67.5455C1253.97 67.5455 1255.26 69.5227 1255.26 72.4545C1255.26 75.4205 1253.93 77.4659 1251.51 77.4659ZM1266.69 79.2727C1269.35 79.2727 1271.3 77.9432 1271.91 75.9659L1269.97 75.4205C1269.45 76.7841 1268.27 77.4659 1266.69 77.4659C1264.33 77.4659 1262.7 75.9403 1262.61 73.1364H1272.11V72.2841C1272.11 67.4091 1269.22 65.7386 1266.49 65.7386C1262.94 65.7386 1260.59 68.5341 1260.59 72.5568C1260.59 76.5795 1262.91 79.2727 1266.69 79.2727ZM1262.61 71.3977C1262.75 69.3608 1264.19 67.5455 1266.49 67.5455C1268.67 67.5455 1270.07 69.1818 1270.07 71.3977H1262.61ZM1277.18 61.5455H1275.17V79H1277.18V61.5455ZM1286.36 79.2727C1289.02 79.2727 1290.96 77.9432 1291.57 75.9659L1289.63 75.4205C1289.12 76.7841 1287.93 77.4659 1286.36 77.4659C1284 77.4659 1282.37 75.9403 1282.27 73.1364H1291.78V72.2841C1291.78 67.4091 1288.88 65.7386 1286.15 65.7386C1282.61 65.7386 1280.25 68.5341 1280.25 72.5568C1280.25 76.5795 1282.57 79.2727 1286.36 79.2727ZM1282.27 71.3977C1282.41 69.3608 1283.85 67.5455 1286.15 67.5455C1288.33 67.5455 1289.73 69.1818 1289.73 71.3977H1282.27ZM1300.53 65.9091H1297.73V62.7727H1295.72V65.9091H1293.75V67.6136H1295.72V75.7955C1295.72 78.0795 1297.56 79.1705 1299.27 79.1705C1300.02 79.1705 1300.5 79.0341 1300.77 78.9318L1300.36 77.125C1300.19 77.1591 1299.92 77.2273 1299.47 77.2273C1298.59 77.2273 1297.73 76.9545 1297.73 75.25V67.6136H1300.53V65.9091ZM1308.9 79.2727C1311.56 79.2727 1313.51 77.9432 1314.12 75.9659L1312.18 75.4205C1311.67 76.7841 1310.48 77.4659 1308.9 77.4659C1306.54 77.4659 1304.92 75.9403 1304.82 73.1364H1314.32V72.2841C1314.32 67.4091 1311.43 65.7386 1308.7 65.7386C1305.15 65.7386 1302.8 68.5341 1302.8 72.5568C1302.8 76.5795 1305.12 79.2727 1308.9 79.2727ZM1304.82 71.3977C1304.96 69.3608 1306.4 67.5455 1308.7 67.5455C1310.88 67.5455 1312.28 69.1818 1312.28 71.3977H1304.82Z" fill="white"/>
<path opacity="0.5" d="M1239.59 108H1241.17V102.145H1246.85V100.739H1241.17V96.3153H1247.43V94.9091H1239.59V108ZM1254.52 94.9091H1252.94L1249.66 97.0824V98.6932L1252.86 96.571H1252.94V108H1254.52V94.9091ZM1258.29 108H1266.55V106.594H1260.46V106.491L1263.4 103.347C1265.65 100.937 1266.32 99.8118 1266.32 98.3608C1266.32 96.3409 1264.68 94.7301 1262.38 94.7301C1260.08 94.7301 1258.34 96.2898 1258.34 98.5909H1259.85C1259.85 97.1016 1260.81 96.1108 1262.33 96.1108C1263.75 96.1108 1264.83 96.9801 1264.83 98.3608C1264.83 99.5689 1264.12 100.464 1262.61 102.119L1258.29 106.849V108Z" fill="white"/>
<rect x="680" y="130" width="100" height="100" rx="3" fill="url(#paint29_linear_16_673)"/>
<path d="M720.974 192H723.793V181.591H736.202V192H739.02V168.727H736.202V179.091H723.793V168.727H720.974V192Z" fill="white"/>
<path d="M762.177 158L763.38 156.797L758.427 151.859H771.255V150.141H758.427L763.38 145.187L762.177 144L755.177 151L762.177 158Z" fill="#EF9E00"/>
<path d="M766.423 200.25H764.735L759.579 219.406H761.267L766.423 200.25Z" fill="#5CF300"/>
<rect x="680" y="240" width="100" height="100" rx="3" fill="url(#paint30_linear_16_673)"/>
<path d="M739.726 278.727H736.953V297.045H736.726L723.999 278.727H721.271V302H724.089V283.727H724.317L736.999 302H739.726V278.727Z" fill="white"/>
<path d="M762.75 320H764.25L764.125 316.562L767.031 318.406L767.781 317.094L764.719 315.5L767.781 313.906L767.031 312.594L764.125 314.437L764.25 311H762.75L762.875 314.437L759.969 312.594L759.219 313.906L762.281 315.5L759.219 317.094L759.969 318.406L762.875 316.562L762.75 320Z" fill="#5CF300"/>
<rect x="680" y="20" width="100" height="100" rx="3" fill="url(#paint31_linear_16_673)"/>
<path d="M720.178 58.7273L728.587 72.4091V82H731.405V72.4091L739.814 58.7273H736.587L730.132 69.5909H729.859L723.405 58.7273H720.178Z" fill="white"/>
<path d="M759.219 39.25H761.094L763.453 34.1562H763.555L765.938 39.25H767.781L764.563 32.5H762.438L759.219 39.25Z" fill="#EF9E00"/>
<path d="M763.104 107.219C766.339 107.258 768.448 104.82 768.448 101.844C768.448 98.75 766.159 96.5312 763.417 96.5312C761.769 96.5312 760.354 97.3359 759.479 98.6562H759.354C759.362 94.7578 760.878 92.5 763.354 92.5C765.042 92.5 766.058 93.5625 766.417 95H768.323C767.933 92.5156 766.042 90.7812 763.354 90.7812C759.753 90.7812 757.542 93.9687 757.542 99.625C757.542 105.539 760.479 107.188 763.104 107.219ZM763.104 105.5C761.097 105.5 759.628 103.789 759.636 101.875C759.644 99.9609 761.183 98.25 763.167 98.25C765.128 98.25 766.573 99.8594 766.573 101.844C766.573 103.875 765.065 105.5 763.104 105.5Z" fill="#5CF300"/>
<path opacity="0.5" d="M689.585 108H691.17V102.145H696.847V100.739H691.17V96.3153H697.435V94.9091H689.585V108ZM700.329 108H701.991L707.82 96.392V94.9091H699.434V96.3153H706.184V96.4176L700.329 108Z" fill="white"/>
<rect x="240" y="130" width="100" height="100" rx="3" fill="url(#paint32_linear_16_673)"/>
<path d="M295.842 174.545H298.57C298.445 171.034 295.206 168.409 290.706 168.409C286.251 168.409 282.751 171 282.751 174.909C282.751 178.045 285.024 179.909 288.661 180.955L291.524 181.773C293.979 182.455 296.161 183.318 296.161 185.636C296.161 188.182 293.706 189.864 290.479 189.864C287.706 189.864 285.251 188.636 285.024 186H282.115C282.388 189.818 285.479 192.409 290.479 192.409C295.842 192.409 298.888 189.455 298.888 185.682C298.888 181.318 294.751 179.909 292.342 179.273L289.979 178.636C288.251 178.182 285.479 177.273 285.479 174.773C285.479 172.545 287.524 170.909 290.615 170.909C293.433 170.909 295.57 172.25 295.842 174.545Z" fill="white"/>
<path d="M324.64 151.25C324.64 147.312 323.577 144.031 321.671 141.25H320.046C321.546 143.312 322.733 147.531 322.733 151.25C322.733 154.969 321.546 159.188 320.046 161.25H321.671C323.577 158.469 324.64 155.188 324.64 151.25Z" fill="#EF9E00"/>
<rect x="240" y="240" width="100" height="100" rx="3" fill="url(#paint33_linear_16_673)"/>
<path d="M284.416 278.727H281.098L288.598 290.364L281.098 302H284.416L290.416 292.5H290.598L296.598 302H299.916L292.598 290.364L299.916 278.727H296.598L290.598 288.409H290.416L284.416 278.727Z" fill="white"/>
<path d="M328.53 262.375V261.125L318.468 256V258L326.124 261.688V261.812L318.468 265.5V267.5L328.53 262.375Z" fill="#EF9E00"/>
<rect x="240" y="20" width="100" height="100" rx="3" fill="url(#paint34_linear_16_673)"/>
<path d="M282.358 82H285.267L290.403 63.4545H290.585L295.722 82H298.631L304.994 58.7273H302.131L297.267 77.6818H297.04L292.085 58.7273H288.903L283.949 77.6818H283.722L278.858 58.7273H275.994L282.358 82Z" fill="white"/>
<path d="M324.104 52.2188C325.698 52.2188 327.729 51.75 328.698 51.3438L328.261 49.9062C327.698 50.0938 325.886 50.7188 324.167 50.7188C318.823 50.7188 315.979 47.7187 315.979 42.4062C315.979 37.1875 318.886 34.0625 323.792 34.0625C328.761 34.0625 331.104 37.5625 331.104 41.0625C331.104 44.625 330.729 46.2187 329.136 46.2187C328.198 46.2187 327.698 45.4375 327.698 44.5625V37.5H326.042V38.375H325.948C325.729 37.6875 324.511 37.0937 322.948 37.25C320.604 37.5 318.823 39.4375 318.823 42.25C318.823 45.2188 320.229 47.5 322.948 47.5937C324.729 47.6562 325.667 46.7812 326.042 45.875H326.136C326.323 47.2188 328.011 47.6875 329.104 47.6875C332.417 47.6875 332.729 44.125 332.729 41.0937C332.729 36.8125 329.729 32.5937 323.886 32.5937C317.854 32.5937 314.261 36.25 314.261 42.3437C314.261 48.6563 317.729 52.2188 324.104 52.2188ZM323.198 46C321.167 46 320.448 44.1562 320.448 42.1562C320.448 40.3437 321.479 38.7812 323.261 38.7812C325.136 38.7812 326.136 39.5312 326.136 42.1562C326.136 44.75 325.292 46 323.198 46Z" fill="#EF9E00"/>
<path d="M317.996 107H328.09V105.281H320.652V105.156L324.246 101.312C326.996 98.3672 327.809 96.9922 327.809 95.2187C327.809 92.75 325.809 90.7812 322.996 90.7812C320.191 90.7812 318.059 92.6875 318.059 95.5H319.902C319.902 93.6797 321.082 92.4687 322.934 92.4687C324.668 92.4687 325.996 93.5312 325.996 95.2187C325.996 96.6953 325.129 97.7891 323.277 99.8125L317.996 105.594V107Z" fill="#5CF300"/>
<path opacity="0.5" d="M249.585 108H251.17V102.145H256.847V100.739H251.17V96.3153H257.435V94.9091H249.585V108ZM264.343 108.179C266.881 108.179 268.766 106.587 268.766 104.446C268.766 102.784 267.782 101.576 266.133 101.301V101.199C267.456 100.796 268.28 99.7095 268.28 98.233C268.28 96.3793 266.817 94.7301 264.394 94.7301C262.131 94.7301 260.252 96.1236 260.175 98.1818H261.709C261.767 96.8778 263.007 96.1108 264.368 96.1108C265.813 96.1108 266.746 96.9865 266.746 98.3097C266.746 99.6903 265.666 100.585 264.113 100.585H263.064V101.991H264.113C266.101 101.991 267.206 103.001 267.206 104.446C267.206 105.833 265.998 106.773 264.317 106.773C262.802 106.773 261.601 105.993 261.505 104.727H259.894C259.99 106.786 261.805 108.179 264.343 108.179Z" fill="white"/>
<rect x="900" y="130" width="100" height="100" rx="3" fill="url(#paint35_linear_16_673)"/>
<path d="M942.881 192H945.699V184.455L948.608 181.182L956.699 192H960.108L950.335 179.227L960.108 168.727H956.426L945.972 180.273H945.699V168.727H942.881V192Z" fill="white"/>
<path d="M982.646 158H984.364V145.156L989.317 150.109L990.505 148.906L983.505 141.906L976.489 148.906L977.708 150.109L982.646 145.156V158Z" fill="#EF9E00"/>
<path d="M982.964 217.219C986.011 217.219 988.245 214.969 988.245 211.906C988.245 208.805 986.089 206.531 983.151 206.531C982.073 206.531 981.026 206.914 980.37 207.437H980.276L980.839 202.719H987.526V201H979.214L978.245 208.875L980.058 209.094C980.722 208.617 981.854 208.273 982.839 208.281C984.878 208.297 986.37 209.844 986.37 211.937C986.37 213.992 984.933 215.5 982.964 215.5C981.323 215.5 980.019 214.445 979.87 213H977.995C978.112 215.438 980.214 217.219 982.964 217.219Z" fill="#5CF300"/>
<rect x="900" y="20" width="100" height="100" rx="3" fill="url(#paint36_linear_16_673)"/>
<path d="M951.902 58.7273H949.084V82H951.902V58.7273Z" fill="white"/>
<path d="M982.75 41H984.25L984.125 37.5625L987.031 39.4062L987.781 38.0937L984.719 36.5L987.781 34.9062L987.031 33.5937L984.125 35.4375L984.25 32H982.75L982.875 35.4375L979.969 33.5937L979.219 34.9062L982.281 36.5L979.219 38.0937L979.969 39.4062L982.875 37.5625L982.75 41Z" fill="#EF9E00"/>
<path d="M983.003 107.219C986.198 107.219 988.425 105.352 988.44 102.75C988.425 100.727 987.073 99.0078 985.347 98.6875V98.5937C986.847 98.2031 987.831 96.7344 987.847 95.0312C987.831 92.5937 985.784 90.7812 983.003 90.7812C980.19 90.7812 978.144 92.5937 978.159 95.0312C978.144 96.7344 979.128 98.2031 980.659 98.5937V98.6875C978.901 99.0078 977.55 100.727 977.565 102.75C977.55 105.352 979.776 107.219 983.003 107.219ZM983.003 105.5C980.808 105.5 979.456 104.375 979.472 102.656C979.456 100.852 980.948 99.5625 983.003 99.5625C985.026 99.5625 986.519 100.852 986.534 102.656C986.519 104.375 985.167 105.5 983.003 105.5ZM983.003 97.9062C981.253 97.9062 980.019 96.8125 980.034 95.1562C980.019 93.5312 981.206 92.4687 983.003 92.4687C984.769 92.4687 985.956 93.5312 985.972 95.1562C985.956 96.8125 984.722 97.9062 983.003 97.9062Z" fill="#5CF300"/>
<path opacity="0.5" d="M909.585 108H911.17V102.145H916.847V100.739H911.17V96.3153H917.435V94.9091H909.585V108ZM924.087 94.7301C921.428 94.6982 919.715 96.6989 919.715 99.1023C919.715 101.634 921.581 103.449 923.831 103.449C925.187 103.449 926.337 102.784 927.053 101.71H927.155C927.155 104.932 925.903 106.773 923.883 106.773C922.502 106.773 921.658 105.903 921.377 104.702H919.817C920.124 106.773 921.684 108.179 923.883 108.179C926.823 108.179 928.638 105.571 928.638 100.918C928.638 96.1108 926.235 94.7557 924.087 94.7301ZM924.087 96.1364C925.724 96.1364 926.925 97.5426 926.925 99.0767C926.925 100.636 925.647 102.043 924.036 102.043C922.425 102.043 921.249 100.739 921.249 99.1023C921.249 97.4659 922.476 96.1364 924.087 96.1364Z" fill="white"/>
<rect x="460" y="240" width="100" height="100" rx="3" fill="url(#paint37_linear_16_673)"/>
<path d="M502.96 278.727H500.006L508.551 302H511.46L520.006 278.727H517.051L510.142 298.318H509.869L502.96 278.727Z" fill="white"/>
<path d="M544.39 251.25H539.765V252.781H542.64V269.719H539.765V271.25H544.39V251.25Z" fill="#EF9E00"/>
<rect x="460" y="20" width="100" height="100" rx="3" fill="url(#paint38_linear_16_673)"/>
<path d="M503.084 82H505.902V72.9091H510.993C511.197 72.9091 511.391 72.9091 511.584 72.8977L516.493 82H519.766L514.504 72.3864C517.47 71.375 518.857 68.9545 518.857 65.8636C518.857 61.75 516.402 58.7273 510.947 58.7273H503.084V82ZM505.902 70.3636V61.2273H510.857C514.629 61.2273 516.084 63.0682 516.084 65.8636C516.084 68.6591 514.629 70.3636 510.902 70.3636H505.902Z" fill="white"/>
<path d="M542.86 50H544.142V48.2578C547.423 48.0313 549.267 46.0938 549.267 43.6562C549.267 40.6562 546.423 39.6875 544.767 39.25L544.142 39.0781V33.5234C545.798 33.6875 547.001 34.5781 547.173 36H549.048C548.97 33.7187 546.97 31.9844 544.142 31.7969V30H542.86V31.8203C540.181 32.0937 538.173 33.7969 538.173 36.25C538.173 38.4062 539.735 39.6875 542.235 40.4062L542.86 40.5859V46.5C541.22 46.3281 539.876 45.4844 539.735 43.875H537.735C537.915 46.3359 539.79 48.0547 542.86 48.2578V50ZM544.142 46.5V40.9531L544.204 40.9687C545.892 41.4375 547.392 42.0313 547.392 43.625C547.392 45.1953 546.032 46.2891 544.142 46.5ZM542.86 38.7344C541.673 38.3984 540.048 37.7422 540.048 36.1562C540.048 34.8047 541.142 33.7734 542.86 33.5469V38.7344Z" fill="#EF9E00"/>
<path d="M537.724 103.719H545.255V107H547.099V103.719H549.286V102H547.099V91H544.755L537.724 102.125V103.719ZM545.255 102H539.817V101.875L545.13 93.4688H545.255V102Z" fill="#5CF300"/>
<path opacity="0.5" d="M469.585 108H471.17V102.145H476.847V100.739H471.17V96.3153H477.435V94.9091H469.585V108ZM484.01 108.179C486.503 108.179 488.331 106.338 488.331 103.832C488.331 101.295 486.567 99.4347 484.164 99.4347C483.282 99.4347 482.425 99.7479 481.888 100.176H481.812L482.272 96.3153H487.743V94.9091H480.942L480.15 101.352L481.633 101.531C482.176 101.141 483.103 100.86 483.908 100.866C485.577 100.879 486.797 102.145 486.797 103.858C486.797 105.539 485.621 106.773 484.01 106.773C482.668 106.773 481.601 105.91 481.479 104.727H479.945C480.041 106.722 481.76 108.179 484.01 108.179Z" fill="white"/>
<rect x="20" y="20" width="100" height="100" rx="3" fill="url(#paint39_linear_16_673)"/>
<path d="M58.9599 65.9091H56.1644V62.7727H54.1531V65.9091H52.1758V67.6136H54.1531V75.7955C54.1531 78.0795 55.994 79.1705 57.6985 79.1705C58.4485 79.1705 58.9258 79.0341 59.1985 78.9318L58.7894 77.125C58.619 77.1591 58.3462 77.2273 57.9031 77.2273C57.0167 77.2273 56.1644 76.9545 56.1644 75.25V67.6136H58.9599V65.9091ZM65.8377 79.3068C68.1218 79.3068 69.315 78.0795 69.7241 77.2273H69.8263V79H71.8377V70.375C71.8377 66.2159 68.6673 65.7386 66.9968 65.7386C65.0195 65.7386 62.7695 66.4205 61.7468 68.8068L63.6559 69.4886C64.0991 68.5341 65.1474 67.5114 67.065 67.5114C68.9144 67.5114 69.8263 68.4915 69.8263 70.1705V70.2386C69.8263 71.2102 68.8377 71.125 66.4513 71.4318C64.0224 71.7472 61.3718 72.2841 61.3718 75.2841C61.3718 77.8409 63.3491 79.3068 65.8377 79.3068ZM66.1445 77.5C64.5423 77.5 63.3832 76.7841 63.3832 75.3864C63.3832 73.8523 64.7809 73.375 66.3491 73.1705C67.2013 73.0682 69.4854 72.8295 69.8263 72.4205V74.2614C69.8263 75.8977 68.5309 77.5 66.1445 77.5ZM75.7816 79H77.7248V76.9886H77.9634C78.4066 77.7045 79.2589 79.2727 81.7816 79.2727C85.0543 79.2727 87.3384 76.6477 87.3384 72.4886C87.3384 68.3636 85.0543 65.7386 81.7475 65.7386C79.1907 65.7386 78.4066 67.3068 77.9634 67.9886H77.793V61.5455H75.7816V79ZM77.7589 72.4545C77.7589 69.5227 79.0543 67.5455 81.5089 67.5455C84.0657 67.5455 85.3271 69.6932 85.3271 72.4545C85.3271 75.25 84.0316 77.4659 81.5089 77.4659C79.0884 77.4659 77.7589 75.4205 77.7589 72.4545Z" fill="white"/>
<path d="M37.6136 40.3438C39.2053 40.3438 40.5028 39.0462 40.5028 37.4545C40.5028 35.8629 39.2053 34.5653 37.6136 34.5653C36.022 34.5653 34.7244 35.8629 34.7244 37.4545C34.7244 39.0462 36.022 40.3438 37.6136 40.3438ZM37.6136 39.0653C36.7251 39.0653 36.0028 38.343 36.0028 37.4545C36.0028 36.5661 36.7251 35.8438 37.6136 35.8438C38.5021 35.8438 39.2244 36.5661 39.2244 37.4545C39.2244 38.343 38.5021 39.0653 37.6136 39.0653ZM32.3466 43.5909L35.108 40.8295L34.2386 39.9602L31.4773 42.7216L32.3466 43.5909ZM42.8807 43.5909L43.75 42.7216L40.9886 39.9602L40.1193 40.8295L42.8807 43.5909ZM34.2386 34.9489L35.108 34.0795L32.3466 31.3182L31.4773 32.1875L34.2386 34.9489ZM40.9886 34.9489L43.75 32.1875L42.8807 31.3182L40.1193 34.0795L40.9886 34.9489ZM37 45.5085H38.2273V41.6222H37V45.5085ZM29.5597 38.0682H33.446V36.8409H29.5597V38.0682ZM41.7812 38.0682H45.6676V36.8409H41.7812V38.0682ZM37 33.2869H38.2273V29.4006H37V33.2869Z" fill="#FF299D"/>
<path d="M98.0615 43.25H99.749C99.7256 41.8906 100.343 41.3438 101.187 41.3438C101.741 41.3438 102.108 41.5859 102.874 42.25C104.015 43.2422 104.78 43.6875 105.843 43.6875C107.437 43.6875 108.983 42.6875 108.937 40.0938H107.249C107.272 41.3359 106.702 42 105.812 42C105.257 42 104.89 41.7578 104.124 41.0937C102.983 40.1016 102.218 39.6562 101.155 39.6562C99.5615 39.6562 98.0146 40.6562 98.0615 43.25Z" fill="#EF9E00"/>
<path d="M103.907 93.375H105.532L103.626 89.75H101.47L103.907 93.375Z" fill="#5CF300"/>
<path opacity="0.5" d="M29.5852 108H31.1705V102.145H36.8466V100.739H31.1705V96.3153H37.4347V94.9091H29.5852V108ZM44.5218 94.9091H42.9366L39.6639 97.0824V98.6932L42.8599 96.571H42.9366V108H44.5218V94.9091Z" fill="white"/>
<rect x="1010" y="240" width="100" height="100" rx="3" fill="url(#paint40_linear_16_673)"/>
<path d="M1060.5 318.182C1061.63 318.182 1062.55 317.261 1062.55 316.136C1062.55 315.011 1061.63 314.091 1060.5 314.091C1059.38 314.091 1058.46 315.011 1058.46 316.136C1058.46 317.261 1059.38 318.182 1060.5 318.182Z" fill="white"/>
<path d="M1067.32 272.818V271L1052.68 263.545V266.455L1063.82 271.818V272L1052.68 277.364V280.273L1067.32 272.818Z" fill="white"/>
<path d="M1093.56 327.219C1096.66 327.219 1098.96 325.273 1098.96 322.656C1098.96 320.625 1097.76 319.148 1095.75 318.812V318.688C1097.36 318.195 1098.37 316.867 1098.37 315.063C1098.37 312.797 1096.58 310.781 1093.62 310.781C1090.86 310.781 1088.56 312.484 1088.46 315H1090.34C1090.41 313.406 1091.93 312.469 1093.59 312.469C1095.36 312.469 1096.5 313.539 1096.5 315.156C1096.5 316.844 1095.18 317.937 1093.28 317.937H1092V319.656H1093.28C1095.71 319.656 1097.06 320.891 1097.06 322.656C1097.06 324.352 1095.58 325.5 1093.53 325.5C1091.68 325.5 1090.21 324.547 1090.09 323H1088.12C1088.24 325.516 1090.46 327.219 1093.56 327.219Z" fill="#5CF300"/>
<rect x="1230" y="130" width="100" height="100" rx="3" fill="url(#paint41_linear_16_673)"/>
<path d="M1278.08 193.091H1280.03L1281.94 184.727H1278.89L1278.08 193.091Z" fill="white"/>
<path d="M1275.61 156.091H1277.56L1279.47 147.727H1276.42L1275.61 156.091ZM1281.52 156.091H1283.47L1285.38 147.727H1282.33L1281.52 156.091Z" fill="white"/>
<path d="M1312.62 156.906H1314.37V152.625H1318.66V150.875H1314.37V146.594H1312.62V150.875H1308.34V152.625H1312.62V156.906Z" fill="#EF9E00"/>
<path d="M1308.69 213.906H1318.31V212.219H1308.69V213.906ZM1308.69 209.281H1318.31V207.594H1308.69V209.281Z" fill="#5CF300"/>
<rect x="900" y="240" width="100" height="100" rx="3" fill="url(#paint42_linear_16_673)"/>
<path d="M952.47 314.818H949.561L949.425 316.091C949.095 319.17 948.447 322.239 948.152 323.682H950.197C950.743 322.136 951.902 318.636 952.288 316.045L952.47 314.818Z" fill="white"/>
<path d="M942.68 272.818L957.317 280.273V277.364L946.18 272V271.818L957.317 266.455V263.545L942.68 271V272.818Z" fill="white"/>
<path d="M977.996 327H988.09V325.281H980.652V325.156L984.246 321.312C986.996 318.367 987.809 316.992 987.809 315.219C987.809 312.75 985.809 310.781 982.996 310.781C980.191 310.781 978.059 312.687 978.059 315.5H979.902C979.902 313.68 981.082 312.469 982.934 312.469C984.668 312.469 985.996 313.531 985.996 315.219C985.996 316.695 985.129 317.789 983.277 319.812L977.996 325.594V327Z" fill="#5CF300"/>
<rect x="1120" y="130" width="100" height="100" rx="3" fill="url(#paint43_linear_16_673)"/>
<path d="M1172.47 204.818H1169.56L1169.42 206.091C1169.1 209.17 1168.45 212.239 1168.15 213.682H1170.2C1170.74 212.136 1171.9 208.636 1172.29 206.045L1172.47 204.818ZM1170.83 195.227C1171.96 195.227 1172.88 194.307 1172.88 193.182C1172.88 192.057 1171.96 191.136 1170.83 191.136C1169.71 191.136 1168.79 192.057 1168.79 193.182C1168.79 194.307 1169.71 195.227 1170.83 195.227Z" fill="white"/>
<path d="M1170.5 171.182C1171.63 171.182 1172.55 170.261 1172.55 169.136C1172.55 168.011 1171.63 167.091 1170.5 167.091C1169.38 167.091 1168.46 168.011 1168.46 169.136C1168.46 170.261 1169.38 171.182 1170.5 171.182ZM1170.5 158.227C1171.63 158.227 1172.55 157.307 1172.55 156.182C1172.55 155.057 1171.63 154.136 1170.5 154.136C1169.38 154.136 1168.46 155.057 1168.46 156.182C1168.46 157.307 1169.38 158.227 1170.5 158.227Z" fill="white"/>
<path d="M1208 158H1198V159.719H1208V158Z" fill="#EF9E00"/>
<path d="M1208.5 209.875H1198.5V211.625H1208.5V209.875Z" fill="#5CF300"/>
<rect x="900" y="350" width="100" height="100" rx="3" fill="url(#paint44_linear_16_673)"/>
<path d="M954.979 403.636H952.524L945.024 431.5H947.479L954.979 403.636Z" fill="white"/>
<path d="M948.345 384.455H951.072V384.318C951.118 381.5 951.845 380.273 953.845 379.023C955.845 377.807 957.027 376.057 957.027 373.545C957.027 370 954.436 367.409 950.436 367.409C946.754 367.409 943.834 369.682 943.663 373.545H946.527C946.697 370.864 948.572 369.773 950.436 369.773C952.572 369.773 954.3 371.182 954.3 373.409C954.3 375.216 953.266 376.511 951.936 377.318C949.709 378.67 948.379 379.989 948.345 384.318V384.455ZM949.8 391.182C950.925 391.182 951.845 390.261 951.845 389.136C951.845 388.011 950.925 387.091 949.8 387.091C948.675 387.091 947.754 388.011 947.754 389.136C947.754 390.261 948.675 391.182 949.8 391.182Z" fill="white"/>
<path d="M983 437.219C986.531 437.219 988.563 434.227 988.563 429C988.563 423.813 986.5 420.781 983 420.781C979.5 420.781 977.438 423.813 977.438 429C977.438 434.227 979.469 437.219 983 437.219ZM983 435.5C980.672 435.5 979.313 433.164 979.313 429C979.313 424.844 980.688 422.469 983 422.469C985.313 422.469 986.688 424.844 986.688 429C986.688 433.164 985.328 435.5 983 435.5Z" fill="#5CF300"/>
<rect x="20" y="130" width="100" height="100" rx="3" fill="url(#paint45_linear_16_673)"/>
<path d="M57.3725 189.273C60.0316 189.273 61.9748 187.943 62.5884 185.966L60.6452 185.42C60.1339 186.784 58.9492 187.466 57.3725 187.466C55.0117 187.466 53.3839 185.94 53.2901 183.136H62.793V182.284C62.793 177.409 59.8952 175.739 57.168 175.739C53.6225 175.739 51.2702 178.534 51.2702 182.557C51.2702 186.58 53.5884 189.273 57.3725 189.273ZM53.2901 181.398C53.4265 179.361 54.8668 177.545 57.168 177.545C59.3498 177.545 60.7475 179.182 60.7475 181.398H53.2901ZM75.1254 178.841C74.4947 176.983 73.0799 175.739 70.489 175.739C67.7276 175.739 65.6822 177.307 65.6822 179.523C65.6822 181.33 66.756 182.54 69.1594 183.102L71.3413 183.614C72.6623 183.92 73.2844 184.551 73.2844 185.455C73.2844 186.58 72.0913 187.5 70.2163 187.5C68.5714 187.5 67.5401 186.793 67.1822 185.386L65.2731 185.864C65.7418 188.088 67.5742 189.273 70.2504 189.273C73.293 189.273 75.364 187.611 75.364 185.352C75.364 183.528 74.2219 182.378 71.8867 181.807L69.9435 181.33C68.3924 180.946 67.6935 180.426 67.6935 179.42C67.6935 178.295 68.8867 177.477 70.489 177.477C72.2447 177.477 72.9691 178.449 73.3185 179.352L75.1254 178.841ZM83.7099 189.273C86.6076 189.273 88.5167 187.5 88.8576 185.182H86.8462C86.4712 186.614 85.2781 187.466 83.7099 187.466C81.3235 187.466 79.7894 185.489 79.7894 182.455C79.7894 179.489 81.3576 177.545 83.7099 177.545C85.4826 177.545 86.5394 178.636 86.8462 179.83H88.8576C88.5167 177.375 86.4371 175.739 83.6758 175.739C80.1303 175.739 77.7781 178.534 77.7781 182.523C77.7781 186.443 80.0281 189.273 83.7099 189.273Z" fill="white"/>
<path d="M33.3693 218.205C35.5426 218.205 36.9744 216.875 37.2301 215.136H35.7216C35.4403 216.21 34.5455 216.849 33.3693 216.849C31.5795 216.849 30.429 215.366 30.429 213.091C30.429 210.866 31.6051 209.409 33.3693 209.409C34.6989 209.409 35.4915 210.227 35.7216 211.122H37.2301C36.9744 209.281 35.4148 208.054 33.3438 208.054C30.6847 208.054 28.9205 210.151 28.9205 213.142C28.9205 216.082 30.608 218.205 33.3693 218.205ZM43.424 218.205C46.0831 218.205 47.8729 216.185 47.8729 213.142C47.8729 210.074 46.0831 208.054 43.424 208.054C40.7649 208.054 38.9751 210.074 38.9751 213.142C38.9751 216.185 40.7649 218.205 43.424 218.205ZM43.424 216.849C41.4041 216.849 40.4837 215.111 40.4837 213.142C40.4837 211.173 41.4041 209.409 43.424 209.409C45.4439 209.409 46.3643 211.173 46.3643 213.142C46.3643 215.111 45.4439 216.849 43.424 216.849ZM51.6841 212.094C51.6841 210.381 52.7452 209.409 54.1898 209.409C55.5897 209.409 56.4398 210.323 56.4398 211.864V218H57.9483V211.761C57.9483 209.256 56.6124 208.054 54.6245 208.054C53.1415 208.054 52.2211 208.719 51.7608 209.716H51.633V208.182H50.1756V218H51.6841V212.094ZM64.9748 208.182H62.8782V205.83H61.3697V208.182H59.8867V209.46H61.3697V215.597C61.3697 217.31 62.7504 218.128 64.0288 218.128C64.5913 218.128 64.9492 218.026 65.1538 217.949L64.8469 216.594C64.7191 216.619 64.5146 216.67 64.1822 216.67C63.5174 216.67 62.8782 216.466 62.8782 215.188V209.46H64.9748V208.182ZM67.244 218H68.7525V211.787C68.7525 210.457 69.8008 209.486 71.2326 209.486C71.6353 209.486 72.0508 209.562 72.1531 209.588V208.054C71.9805 208.041 71.5842 208.028 71.3604 208.028C70.1843 208.028 69.1616 208.693 68.8036 209.665H68.7013V208.182H67.244V218ZM77.631 218.205C80.2901 218.205 82.0799 216.185 82.0799 213.142C82.0799 210.074 80.2901 208.054 77.631 208.054C74.9719 208.054 73.1822 210.074 73.1822 213.142C73.1822 216.185 74.9719 218.205 77.631 218.205ZM77.631 216.849C75.6112 216.849 74.6907 215.111 74.6907 213.142C74.6907 211.173 75.6112 209.409 77.631 209.409C79.6509 209.409 80.5714 211.173 80.5714 213.142C80.5714 215.111 79.6509 216.849 77.631 216.849ZM85.8912 204.909H84.3826V218H85.8912V204.909Z" fill="#7AE7FF"/>
<path d="M1243.32 35.875H1239V41.125H1243.32L1248 46V31L1243.32 35.875Z" stroke="#FF299D" stroke-width="1.5" stroke-linejoin="round"/>
<path d="M1256 30C1261 34 1261 44 1256 49" stroke="#FF299D" stroke-width="1.5" stroke-linejoin="round"/>
<path d="M1253 32C1256.84 35.4286 1257.16 42.2857 1253 46" stroke="#FF299D" stroke-width="1.5" stroke-linejoin="round"/>
<path d="M1251 35C1253.56 36.9592 1253.77 40.8776 1251 43" stroke="#FF299D" stroke-width="1.5" stroke-linejoin="round"/>
<path d="M1133.32 35.875H1129V41.125H1133.32L1138 46V31L1133.32 35.875Z" stroke="#FF299D" stroke-width="1.5" stroke-linejoin="round"/>
<path d="M1141 35C1143.56 36.9592 1143.77 40.8776 1141 43" stroke="#FF299D" stroke-width="1.5" stroke-linejoin="round"/>
<path d="M1023.32 35.875H1019V41.125H1023.32L1028 46V31L1023.32 35.875Z" stroke="#FF299D" stroke-width="1.5" stroke-linejoin="round"/>
<path d="M918 45V33L927 39L918 45Z" stroke="#FF299D" stroke-width="1.5" stroke-linejoin="round"/>
<path d="M909 45V33L918 39L909 45Z" stroke="#FF299D" stroke-width="1.5" stroke-linejoin="round"/>
<path d="M698 45V33L689 39L698 45Z" stroke="#FF299D" stroke-width="1.5" stroke-linejoin="round"/>
<path d="M707 45V33L698 39L707 45Z" stroke="#FF299D" stroke-width="1.5" stroke-linejoin="round"/>
<path d="M799 45V33L808 39L799 45Z" stroke="#FF299D" stroke-width="1.5" stroke-linejoin="round"/>
<line x1="811.75" y1="32.75" x2="811.75" y2="45.25" stroke="#FF299D" stroke-width="1.5" stroke-linecap="round"/>
<line x1="815.75" y1="32.75" x2="815.75" y2="45.25" stroke="#FF299D" stroke-width="1.5" stroke-linecap="round"/>
<rect x="20" y="351" width="100" height="100" rx="3" fill="#212121"/>
<path d="M32.2699 417.23C33.983 417.23 34.8778 416.31 35.1847 415.67H35.2614V417H36.7699V410.531C36.7699 407.412 34.392 407.054 33.1392 407.054C31.6562 407.054 29.9688 407.565 29.2017 409.355L30.6335 409.866C30.9659 409.151 31.7521 408.384 33.1903 408.384C34.5774 408.384 35.2614 409.119 35.2614 410.378V410.429C35.2614 411.158 34.5199 411.094 32.7301 411.324C30.9084 411.56 28.9205 411.963 28.9205 414.213C28.9205 416.131 30.4034 417.23 32.2699 417.23ZM32.5 415.875C31.2983 415.875 30.429 415.338 30.429 414.29C30.429 413.139 31.4773 412.781 32.6534 412.628C33.2926 412.551 35.0057 412.372 35.2614 412.065V413.446C35.2614 414.673 34.2898 415.875 32.5 415.875ZM43.5119 417.205C45.6852 417.205 47.117 415.875 47.3727 414.136H45.8642C45.5829 415.21 44.688 415.849 43.5119 415.849C41.7221 415.849 40.5716 414.366 40.5716 412.091C40.5716 409.866 41.7477 408.409 43.5119 408.409C44.8414 408.409 45.6341 409.227 45.8642 410.122H47.3727C47.117 408.281 45.5574 407.054 43.4863 407.054C40.8272 407.054 39.063 409.151 39.063 412.142C39.063 415.082 40.7505 417.205 43.5119 417.205ZM53.8478 407.182H51.7512V404.83H50.2427V407.182H48.7598V408.46H50.2427V414.597C50.2427 416.31 51.6234 417.128 52.9018 417.128C53.4643 417.128 53.8223 417.026 54.0268 416.949L53.72 415.594C53.5922 415.619 53.3876 415.67 53.0552 415.67C52.3904 415.67 51.7512 415.466 51.7512 414.188V408.46H53.8478V407.182ZM56.117 417H57.6255V407.182H56.117V417ZM56.8841 405.545C57.4721 405.545 57.9579 405.085 57.9579 404.523C57.9579 403.96 57.4721 403.5 56.8841 403.5C56.296 403.5 55.8102 403.96 55.8102 404.523C55.8102 405.085 56.296 405.545 56.8841 405.545ZM64.3771 417.205C67.0362 417.205 68.826 415.185 68.826 412.142C68.826 409.074 67.0362 407.054 64.3771 407.054C61.718 407.054 59.9283 409.074 59.9283 412.142C59.9283 415.185 61.718 417.205 64.3771 417.205ZM64.3771 415.849C62.3572 415.849 61.4368 414.111 61.4368 412.142C61.4368 410.173 62.3572 408.409 64.3771 408.409C66.397 408.409 67.3175 410.173 67.3175 412.142C67.3175 414.111 66.397 415.849 64.3771 415.849ZM72.6373 411.094C72.6373 409.381 73.6983 408.409 75.1429 408.409C76.5428 408.409 77.3929 409.323 77.3929 410.864V417H78.9015V410.761C78.9015 408.256 77.5655 407.054 75.5776 407.054C74.0946 407.054 73.1742 407.719 72.714 408.716H72.5861V407.182H71.1287V417H72.6373V411.094ZM29.3807 439H30.8892V432.864C30.8892 431.425 31.9375 430.409 33.1136 430.409C34.2578 430.409 35.0568 431.157 35.0568 432.276V439H36.5909V432.608C36.5909 431.342 37.3835 430.409 38.7642 430.409C39.8381 430.409 40.7585 430.978 40.7585 432.429V439H42.267V432.429C42.267 430.121 41.027 429.054 39.2756 429.054C37.8693 429.054 36.8402 429.7 36.3352 430.716H36.233C35.7472 429.668 34.8906 429.054 33.5994 429.054C32.321 429.054 31.375 429.668 30.9659 430.716H30.8381V429.182H29.3807V439ZM49.0138 439.205C51.6729 439.205 53.4627 437.185 53.4627 434.142C53.4627 431.074 51.6729 429.054 49.0138 429.054C46.3548 429.054 44.565 431.074 44.565 434.142C44.565 437.185 46.3548 439.205 49.0138 439.205ZM49.0138 437.849C46.994 437.849 46.0735 436.111 46.0735 434.142C46.0735 432.173 46.994 430.409 49.0138 430.409C51.0337 430.409 51.9542 432.173 51.9542 434.142C51.9542 436.111 51.0337 437.849 49.0138 437.849ZM61.9529 434.986C61.9529 436.827 60.5467 437.67 59.4217 437.67C58.1689 437.67 57.274 436.75 57.274 435.318V429.182H55.7654V435.42C55.7654 437.926 57.095 439.128 58.9359 439.128C60.4189 439.128 61.3904 438.335 61.8507 437.338H61.9529V439H63.4615V429.182H61.9529V434.986ZM73.179 431.381C72.706 429.987 71.6449 429.054 69.7017 429.054C67.6307 429.054 66.0966 430.23 66.0966 431.892C66.0966 433.247 66.902 434.155 68.7045 434.577L70.3409 434.96C71.3317 435.19 71.7983 435.663 71.7983 436.341C71.7983 437.185 70.9034 437.875 69.4972 437.875C68.2635 437.875 67.4901 437.344 67.2216 436.29L65.7898 436.648C66.1413 438.316 67.5156 439.205 69.5227 439.205C71.8047 439.205 73.358 437.958 73.358 436.264C73.358 434.896 72.5014 434.033 70.75 433.605L69.2926 433.247C68.1293 432.96 67.6051 432.57 67.6051 431.815C67.6051 430.972 68.5 430.358 69.7017 430.358C71.0185 430.358 71.5618 431.087 71.8239 431.764L73.179 431.381ZM79.7452 439.205C81.7395 439.205 83.1969 438.207 83.6571 436.724L82.1998 436.315C81.8162 437.338 80.9277 437.849 79.7452 437.849C77.9746 437.849 76.7537 436.705 76.6834 434.602H83.8105V433.963C83.8105 430.307 81.6373 429.054 79.5918 429.054C76.9327 429.054 75.1685 431.151 75.1685 434.168C75.1685 437.185 76.9071 439.205 79.7452 439.205ZM76.6834 433.298C76.7857 431.771 77.8659 430.409 79.5918 430.409C81.2282 430.409 82.2765 431.636 82.2765 433.298H76.6834Z" fill="#FF299D"/>
<path d="M29.8224 371.014H31.2159L31.2031 365.287L38.6179 372.714L39.6151 371.717L32.2003 364.29H37.9276L37.9148 362.909H29.8224V371.014Z" fill="#FF299D"/>
<rect x="460" y="350" width="100" height="100" rx="3" fill="#212121"/>
<path d="M503.083 432.094C503.083 430.381 504.144 429.409 505.588 429.409C506.988 429.409 507.838 430.323 507.838 431.864V438H509.347V431.761C509.347 429.256 508.011 428.054 506.023 428.054C504.54 428.054 503.619 428.719 503.159 429.716H503.031V428.182H501.574V438H503.083V432.094ZM518.291 433.986C518.291 435.827 516.885 436.67 515.76 436.67C514.507 436.67 513.612 435.75 513.612 434.318V428.182H512.103V434.42C512.103 436.926 513.433 438.128 515.274 438.128C516.757 438.128 517.728 437.335 518.189 436.338H518.291V438H519.799V428.182H518.291V433.986ZM522.562 438H524.071V431.864C524.071 430.425 525.119 429.409 526.295 429.409C527.439 429.409 528.238 430.157 528.238 431.276V438H529.773V431.608C529.773 430.342 530.565 429.409 531.946 429.409C533.02 429.409 533.94 429.978 533.94 431.429V438H535.449V431.429C535.449 429.121 534.209 428.054 532.457 428.054C531.051 428.054 530.022 428.7 529.517 429.716H529.415C528.929 428.668 528.072 428.054 526.781 428.054C525.503 428.054 524.557 428.668 524.148 429.716H524.02V428.182H522.562V438ZM550.186 429.895H548.792L548.805 435.622L541.39 428.195L540.393 429.192L547.808 436.619H542.08L542.093 438H550.186V429.895Z" fill="#5CF300"/>
<rect x="790" y="350" width="100" height="100" rx="3" fill="#212121"/>
<path d="M871.39 371.714L878.805 364.287L878.792 370.014H880.186V361.909H872.093L872.08 363.29H877.808L870.393 370.717L871.39 371.714Z" fill="#EF9E00"/>
<path d="M855.249 430.381C854.776 428.987 853.715 428.054 851.772 428.054C849.701 428.054 848.167 429.23 848.167 430.892C848.167 432.247 848.972 433.155 850.775 433.577L852.411 433.96C853.402 434.19 853.869 434.663 853.869 435.341C853.869 436.185 852.974 436.875 851.567 436.875C850.334 436.875 849.56 436.344 849.292 435.29L847.86 435.648C848.212 437.316 849.586 438.205 851.593 438.205C853.875 438.205 855.428 436.958 855.428 435.264C855.428 433.896 854.572 433.033 852.82 432.605L851.363 432.247C850.2 431.96 849.675 431.57 849.675 430.815C849.675 429.972 850.57 429.358 851.772 429.358C853.089 429.358 853.632 430.087 853.894 430.764L855.249 430.381ZM858.671 441.682C860.032 441.682 860.991 440.96 861.56 439.432L865.74 428.207L864.091 428.182L861.381 436.006H861.279L858.568 428.182H856.932L860.563 438.051L860.281 438.818C859.732 440.314 859.054 440.455 857.955 440.173L857.571 441.503C857.725 441.58 858.159 441.682 858.671 441.682ZM867.736 438H869.245V431.864C869.245 430.425 870.293 429.409 871.469 429.409C872.613 429.409 873.412 430.157 873.412 431.276V438H874.946V431.608C874.946 430.342 875.739 429.409 877.12 429.409C878.194 429.409 879.114 429.978 879.114 431.429V438H880.623V431.429C880.623 429.121 879.382 428.054 877.631 428.054C876.225 428.054 875.196 428.7 874.691 429.716H874.588C874.103 428.668 873.246 428.054 871.955 428.054C870.676 428.054 869.73 428.668 869.321 429.716H869.194V428.182H867.736V438Z" fill="#EF9E00"/>
<line x1="585.75" y1="43.25" x2="593.25" y2="43.25" stroke="#FF299D" stroke-width="1.5" stroke-linecap="round"/>
<line x1="597.75" y1="43.25" x2="602.25" y2="43.25" stroke="#FF299D" stroke-width="1.5" stroke-linecap="round"/>
<line x1="576.75" y1="43.25" x2="581.25" y2="43.25" stroke="#FF299D" stroke-width="1.5" stroke-linecap="round"/>
<line x1="589.75" y1="31.75" x2="589.75" y2="36.25" stroke="#FF299D" stroke-width="1.5" stroke-linecap="round"/>
<line x1="598.243" y1="35.0607" x2="595.061" y2="38.2426" stroke="#FF299D" stroke-width="1.5" stroke-linecap="round"/>
<line x1="581.061" y1="35" x2="584.243" y2="38.182" stroke="#FF299D" stroke-width="1.5" stroke-linecap="round"/>
<line x1="472.75" y1="43.25" x2="480.25" y2="43.25" stroke="#FF299D" stroke-width="1.5" stroke-linecap="round"/>
<line x1="485.75" y1="43.25" x2="487.25" y2="43.25" stroke="#FF299D" stroke-width="1.5" stroke-linecap="round"/>
<line x1="465.75" y1="43.25" x2="467.25" y2="43.25" stroke="#FF299D" stroke-width="1.5" stroke-linecap="round"/>
<line x1="476.75" y1="33.75" x2="476.75" y2="35.25" stroke="#FF299D" stroke-width="1.5" stroke-linecap="round"/>
<line x1="484.243" y1="36.0607" x2="483.182" y2="37.1213" stroke="#FF299D" stroke-width="1.5" stroke-linecap="round"/>
<line x1="469.061" y1="36" x2="470.121" y2="37.0607" stroke="#FF299D" stroke-width="1.5" stroke-linecap="round"/>
<defs>
<linearGradient id="paint0_linear_16_673" x1="840" y1="130" x2="840" y2="230" gradientUnits="userSpaceOnUse">
<stop stop-color="#606060"/>
<stop offset="0.0244727" stop-color="#212121"/>
<stop offset="0.969114" stop-color="#212121"/>
<stop offset="1"/>
</linearGradient>
<linearGradient id="paint1_linear_16_673" x1="840" y1="204" x2="840" y2="210" gradientUnits="userSpaceOnUse">
<stop stop-color="white" stop-opacity="0.3"/>
<stop offset="0.645833" stop-color="white" stop-opacity="0"/>
<stop offset="0.645933" stop-opacity="0"/>
<stop offset="1"/>
</linearGradient>
<linearGradient id="paint2_linear_16_673" x1="510" y1="130" x2="510" y2="230" gradientUnits="userSpaceOnUse">
<stop stop-color="#606060"/>
<stop offset="0.0244727" stop-color="#212121"/>
<stop offset="0.969114" stop-color="#212121"/>
<stop offset="1"/>
</linearGradient>
<linearGradient id="paint3_linear_16_673" x1="510" y1="204" x2="510" y2="210" gradientUnits="userSpaceOnUse">
<stop stop-color="white" stop-opacity="0.3"/>
<stop offset="0.645833" stop-color="white" stop-opacity="0"/>
<stop offset="0.645933" stop-opacity="0"/>
<stop offset="1"/>
</linearGradient>
<linearGradient id="paint4_linear_16_673" x1="400" y1="350" x2="400" y2="450" gradientUnits="userSpaceOnUse">
<stop stop-color="#606060"/>
<stop offset="0.0244727" stop-color="#212121"/>
<stop offset="0.969114" stop-color="#212121"/>
<stop offset="1"/>
</linearGradient>
<linearGradient id="paint5_linear_16_673" x1="290" y1="350" x2="290" y2="450" gradientUnits="userSpaceOnUse">
<stop stop-color="#606060"/>
<stop offset="0.0244727" stop-color="#212121"/>
<stop offset="0.969114" stop-color="#212121"/>
<stop offset="1"/>
</linearGradient>
<linearGradient id="paint6_linear_16_673" x1="180" y1="350" x2="180" y2="450" gradientUnits="userSpaceOnUse">
<stop stop-color="#606060"/>
<stop offset="0.0244727" stop-color="#212121"/>
<stop offset="0.969114" stop-color="#212121"/>
<stop offset="1"/>
</linearGradient>
<linearGradient id="paint7_linear_16_673" x1="70" y1="240" x2="70" y2="340" gradientUnits="userSpaceOnUse">
<stop stop-color="#606060"/>
<stop offset="0.0244727" stop-color="#212121"/>
<stop offset="0.969114" stop-color="#212121"/>
<stop offset="1"/>
</linearGradient>
<linearGradient id="paint8_linear_16_673" x1="1280" y1="240" x2="1280" y2="340" gradientUnits="userSpaceOnUse">
<stop stop-color="#606060"/>
<stop offset="0.0244727" stop-color="#212121"/>
<stop offset="0.969114" stop-color="#212121"/>
<stop offset="1"/>
</linearGradient>
<linearGradient id="paint9_linear_16_673" x1="1280" y1="350" x2="1280" y2="450" gradientUnits="userSpaceOnUse">
<stop stop-color="#606060"/>
<stop offset="0.0244727" stop-color="#212121"/>
<stop offset="0.969114" stop-color="#212121"/>
<stop offset="1"/>
</linearGradient>
<linearGradient id="paint10_linear_16_673" x1="840" y1="240" x2="840" y2="340" gradientUnits="userSpaceOnUse">
<stop stop-color="#606060"/>
<stop offset="0.0244727" stop-color="#212121"/>
<stop offset="0.969114" stop-color="#212121"/>
<stop offset="1"/>
</linearGradient>
<linearGradient id="paint11_linear_16_673" x1="840" y1="20" x2="840" y2="120" gradientUnits="userSpaceOnUse">
<stop stop-color="#606060"/>
<stop offset="0.0244727" stop-color="#212121"/>
<stop offset="0.969114" stop-color="#212121"/>
<stop offset="1"/>
</linearGradient>
<linearGradient id="paint12_linear_16_673" x1="400" y1="130" x2="400" y2="230" gradientUnits="userSpaceOnUse">
<stop stop-color="#606060"/>
<stop offset="0.0244727" stop-color="#212121"/>
<stop offset="0.969114" stop-color="#212121"/>
<stop offset="1"/>
</linearGradient>
<linearGradient id="paint13_linear_16_673" x1="400" y1="240" x2="400" y2="340" gradientUnits="userSpaceOnUse">
<stop stop-color="#606060"/>
<stop offset="0.0244727" stop-color="#212121"/>
<stop offset="0.969114" stop-color="#212121"/>
<stop offset="1"/>
</linearGradient>
<linearGradient id="paint14_linear_16_673" x1="400" y1="20" x2="400" y2="120" gradientUnits="userSpaceOnUse">
<stop stop-color="#606060"/>
<stop offset="0.0244727" stop-color="#212121"/>
<stop offset="0.969114" stop-color="#212121"/>
<stop offset="1"/>
</linearGradient>
<linearGradient id="paint15_linear_16_673" x1="1060" y1="350" x2="1060" y2="450" gradientUnits="userSpaceOnUse">
<stop stop-color="#606060"/>
<stop offset="0.0244727" stop-color="#212121"/>
<stop offset="0.969114" stop-color="#212121"/>
<stop offset="1"/>
</linearGradient>
<linearGradient id="paint16_linear_16_673" x1="1060" y1="130" x2="1060" y2="230" gradientUnits="userSpaceOnUse">
<stop stop-color="#606060"/>
<stop offset="0.0244727" stop-color="#212121"/>
<stop offset="0.969114" stop-color="#212121"/>
<stop offset="1"/>
</linearGradient>
<linearGradient id="paint17_linear_16_673" x1="1060" y1="20" x2="1060" y2="120" gradientUnits="userSpaceOnUse">
<stop stop-color="#606060"/>
<stop offset="0.0244727" stop-color="#212121"/>
<stop offset="0.969114" stop-color="#212121"/>
<stop offset="1"/>
</linearGradient>
<linearGradient id="paint18_linear_16_673" x1="675" y1="350" x2="675" y2="450" gradientUnits="userSpaceOnUse">
<stop stop-color="#606060"/>
<stop offset="0.0244727" stop-color="#212121"/>
<stop offset="0.969114" stop-color="#212121"/>
<stop offset="1"/>
</linearGradient>
<linearGradient id="paint19_linear_16_673" x1="620" y1="130" x2="620" y2="230" gradientUnits="userSpaceOnUse">
<stop stop-color="#606060"/>
<stop offset="0.0244727" stop-color="#212121"/>
<stop offset="0.969114" stop-color="#212121"/>
<stop offset="1"/>
</linearGradient>
<linearGradient id="paint20_linear_16_673" x1="620" y1="240" x2="620" y2="340" gradientUnits="userSpaceOnUse">
<stop stop-color="#606060"/>
<stop offset="0.0244727" stop-color="#212121"/>
<stop offset="0.969114" stop-color="#212121"/>
<stop offset="1"/>
</linearGradient>
<linearGradient id="paint21_linear_16_673" x1="620" y1="20" x2="620" y2="120" gradientUnits="userSpaceOnUse">
<stop stop-color="#606060"/>
<stop offset="0.0244727" stop-color="#212121"/>
<stop offset="0.969114" stop-color="#212121"/>
<stop offset="1"/>
</linearGradient>
<linearGradient id="paint22_linear_16_673" x1="180" y1="130" x2="180" y2="230" gradientUnits="userSpaceOnUse">
<stop stop-color="#606060"/>
<stop offset="0.0244727" stop-color="#212121"/>
<stop offset="0.969114" stop-color="#212121"/>
<stop offset="1"/>
</linearGradient>
<linearGradient id="paint23_linear_16_673" x1="180" y1="240" x2="180" y2="340" gradientUnits="userSpaceOnUse">
<stop stop-color="#606060"/>
<stop offset="0.0244727" stop-color="#212121"/>
<stop offset="0.969114" stop-color="#212121"/>
<stop offset="1"/>
</linearGradient>
<linearGradient id="paint24_linear_16_673" x1="180" y1="20" x2="180" y2="120" gradientUnits="userSpaceOnUse">
<stop stop-color="#606060"/>
<stop offset="0.0244727" stop-color="#212121"/>
<stop offset="0.969114" stop-color="#212121"/>
<stop offset="1"/>
</linearGradient>
<linearGradient id="paint25_linear_16_673" x1="1170" y1="350" x2="1170" y2="450" gradientUnits="userSpaceOnUse">
<stop stop-color="#606060"/>
<stop offset="0.0244727" stop-color="#212121"/>
<stop offset="0.969114" stop-color="#212121"/>
<stop offset="1"/>
</linearGradient>
<linearGradient id="paint26_linear_16_673" x1="1170" y1="240" x2="1170" y2="340" gradientUnits="userSpaceOnUse">
<stop stop-color="#606060"/>
<stop offset="0.0244727" stop-color="#212121"/>
<stop offset="0.969114" stop-color="#212121"/>
<stop offset="1"/>
</linearGradient>
<linearGradient id="paint27_linear_16_673" x1="1170" y1="20" x2="1170" y2="120" gradientUnits="userSpaceOnUse">
<stop stop-color="#606060"/>
<stop offset="0.0244727" stop-color="#212121"/>
<stop offset="0.969114" stop-color="#212121"/>
<stop offset="1"/>
</linearGradient>
<linearGradient id="paint28_linear_16_673" x1="1280" y1="20" x2="1280" y2="120" gradientUnits="userSpaceOnUse">
<stop stop-color="#606060"/>
<stop offset="0.0244727" stop-color="#212121"/>
<stop offset="0.969114" stop-color="#212121"/>
<stop offset="1"/>
</linearGradient>
<linearGradient id="paint29_linear_16_673" x1="730" y1="130" x2="730" y2="230" gradientUnits="userSpaceOnUse">
<stop stop-color="#606060"/>
<stop offset="0.0244727" stop-color="#212121"/>
<stop offset="0.969114" stop-color="#212121"/>
<stop offset="1"/>
</linearGradient>
<linearGradient id="paint30_linear_16_673" x1="730" y1="240" x2="730" y2="340" gradientUnits="userSpaceOnUse">
<stop stop-color="#606060"/>
<stop offset="0.0244727" stop-color="#212121"/>
<stop offset="0.969114" stop-color="#212121"/>
<stop offset="1"/>
</linearGradient>
<linearGradient id="paint31_linear_16_673" x1="730" y1="20" x2="730" y2="120" gradientUnits="userSpaceOnUse">
<stop stop-color="#606060"/>
<stop offset="0.0244727" stop-color="#212121"/>
<stop offset="0.969114" stop-color="#212121"/>
<stop offset="1"/>
</linearGradient>
<linearGradient id="paint32_linear_16_673" x1="290" y1="130" x2="290" y2="230" gradientUnits="userSpaceOnUse">
<stop stop-color="#606060"/>
<stop offset="0.0244727" stop-color="#212121"/>
<stop offset="0.969114" stop-color="#212121"/>
<stop offset="1"/>
</linearGradient>
<linearGradient id="paint33_linear_16_673" x1="290" y1="240" x2="290" y2="340" gradientUnits="userSpaceOnUse">
<stop stop-color="#606060"/>
<stop offset="0.0244727" stop-color="#212121"/>
<stop offset="0.969114" stop-color="#212121"/>
<stop offset="1"/>
</linearGradient>
<linearGradient id="paint34_linear_16_673" x1="290" y1="20" x2="290" y2="120" gradientUnits="userSpaceOnUse">
<stop stop-color="#606060"/>
<stop offset="0.0244727" stop-color="#212121"/>
<stop offset="0.969114" stop-color="#212121"/>
<stop offset="1"/>
</linearGradient>
<linearGradient id="paint35_linear_16_673" x1="950" y1="130" x2="950" y2="230" gradientUnits="userSpaceOnUse">
<stop stop-color="#606060"/>
<stop offset="0.0244727" stop-color="#212121"/>
<stop offset="0.969114" stop-color="#212121"/>
<stop offset="1"/>
</linearGradient>
<linearGradient id="paint36_linear_16_673" x1="950" y1="20" x2="950" y2="120" gradientUnits="userSpaceOnUse">
<stop stop-color="#606060"/>
<stop offset="0.0244727" stop-color="#212121"/>
<stop offset="0.969114" stop-color="#212121"/>
<stop offset="1"/>
</linearGradient>
<linearGradient id="paint37_linear_16_673" x1="510" y1="240" x2="510" y2="340" gradientUnits="userSpaceOnUse">
<stop stop-color="#606060"/>
<stop offset="0.0244727" stop-color="#212121"/>
<stop offset="0.969114" stop-color="#212121"/>
<stop offset="1"/>
</linearGradient>
<linearGradient id="paint38_linear_16_673" x1="510" y1="20" x2="510" y2="120" gradientUnits="userSpaceOnUse">
<stop stop-color="#606060"/>
<stop offset="0.0244727" stop-color="#212121"/>
<stop offset="0.969114" stop-color="#212121"/>
<stop offset="1"/>
</linearGradient>
<linearGradient id="paint39_linear_16_673" x1="70" y1="20" x2="70" y2="120" gradientUnits="userSpaceOnUse">
<stop stop-color="#606060"/>
<stop offset="0.0244727" stop-color="#212121"/>
<stop offset="0.969114" stop-color="#212121"/>
<stop offset="1"/>
</linearGradient>
<linearGradient id="paint40_linear_16_673" x1="1060" y1="240" x2="1060" y2="340" gradientUnits="userSpaceOnUse">
<stop stop-color="#606060"/>
<stop offset="0.0244727" stop-color="#212121"/>
<stop offset="0.969114" stop-color="#212121"/>
<stop offset="1"/>
</linearGradient>
<linearGradient id="paint41_linear_16_673" x1="1280" y1="130" x2="1280" y2="230" gradientUnits="userSpaceOnUse">
<stop stop-color="#606060"/>
<stop offset="0.0244727" stop-color="#212121"/>
<stop offset="0.969114" stop-color="#212121"/>
<stop offset="1"/>
</linearGradient>
<linearGradient id="paint42_linear_16_673" x1="950" y1="240" x2="950" y2="340" gradientUnits="userSpaceOnUse">
<stop stop-color="#606060"/>
<stop offset="0.0244727" stop-color="#212121"/>
<stop offset="0.969114" stop-color="#212121"/>
<stop offset="1"/>
</linearGradient>
<linearGradient id="paint43_linear_16_673" x1="1170" y1="130" x2="1170" y2="230" gradientUnits="userSpaceOnUse">
<stop stop-color="#606060"/>
<stop offset="0.0244727" stop-color="#212121"/>
<stop offset="0.969114" stop-color="#212121"/>
<stop offset="1"/>
</linearGradient>
<linearGradient id="paint44_linear_16_673" x1="950" y1="350" x2="950" y2="450" gradientUnits="userSpaceOnUse">
<stop stop-color="#606060"/>
<stop offset="0.0244727" stop-color="#212121"/>
<stop offset="0.969114" stop-color="#212121"/>
<stop offset="1"/>
</linearGradient>
<linearGradient id="paint45_linear_16_673" x1="70" y1="130" x2="70" y2="230" gradientUnits="userSpaceOnUse">
<stop stop-color="#606060"/>
<stop offset="0.0244727" stop-color="#212121"/>
<stop offset="0.969114" stop-color="#212121"/>
<stop offset="1"/>
</linearGradient>
</defs>
</svg>
